<svg width="36" height="36" viewBox="0 0 36 36" fill="none" xmlns="http://www.w3.org/2000/svg">
<rect width="36" height="36" rx="8" fill="white"/>
<g clip-path="url(#clip0_1715_1494)">
<path fill-rule="evenodd" clip-rule="evenodd" d="M7 6C6.44772 6 6 6.46718 6 7.04348C6 7.61978 6.44772 8.08696 7 8.08696H10.1803L11.012 12.4227C11.0164 12.4524 11.022 12.4817 11.0288 12.5105L12.6993 21.2198C12.8366 21.9401 13.2122 22.5871 13.7605 23.0476C14.3062 23.506 14.9884 23.7506 15.6886 23.7391H25.3913C26.0916 23.7506 26.7738 23.506 27.3195 23.0476C27.868 22.5869 28.2437 21.9396 28.3809 21.2189L29.9823 12.4563C30.0381 12.1509 29.9605 11.8353 29.7705 11.5957C29.5805 11.3561 29.298 11.2174 29 11.2174H12.8204L11.9806 6.83869C11.887 6.35101 11.4766 6 11 6H7ZM14.6608 20.8124L13.2207 13.3043H27.7913L26.4185 20.8157C26.3723 21.0546 26.2473 21.2691 26.0654 21.4219C25.8826 21.5755 25.6538 21.6571 25.4192 21.6524L25.4 21.6522H15.68L15.6608 21.6524C15.4262 21.6571 15.1974 21.5755 15.0146 21.4219C14.8318 21.2683 14.7066 21.0526 14.6608 20.8124ZM13 27.9131C13 26.7605 13.8954 25.8262 15 25.8262C16.1046 25.8262 17 26.7605 17 27.9131C17 29.0657 16.1046 30.0001 15 30.0001C13.8954 30.0001 13 29.0657 13 27.9131ZM24 27.9131C24 26.7605 24.8954 25.8262 26 25.8262C27.1046 25.8262 28 26.7605 28 27.9131C28 29.0657 27.1046 30.0001 26 30.0001C24.8954 30.0001 24 29.0657 24 27.9131Z" fill="#5826DA"/>
</g>
<defs>
<clipPath id="clip0_1715_1494">
<rect width="24" height="24" fill="white" transform="translate(6 6)"/>
</clipPath>
</defs>
</svg>
