<svg width="36" height="36" viewBox="0 0 36 36" fill="none" xmlns="http://www.w3.org/2000/svg">
<rect width="36" height="36" rx="8" fill="white"/>
<g clip-path="url(#clip0_1715_1491)">
<path fill-rule="evenodd" clip-rule="evenodd" d="M17.9999 5.95999C18.5522 5.95999 18.9999 6.40771 18.9999 6.95999V10.1236L24.7065 11.9519L24.7288 11.9594L26.9674 12.7351C27.4892 12.916 27.7656 13.4856 27.5848 14.0074C27.4039 14.5293 26.8343 14.8057 26.3125 14.6249L26.0779 14.5436L27.735 19H28C28.5523 19 29 19.4477 29 20C29 20.449 28.704 20.8289 28.2966 20.9553C28.1247 21.4353 27.8555 21.9621 27.4632 22.437C26.8117 23.2253 25.8051 23.88 24.4014 23.88C22.9978 23.88 21.9908 23.2254 21.339 22.4374C20.9461 21.9625 20.6764 21.4355 20.5041 20.9555C20.0963 20.8293 19.8 20.4493 19.8 20C19.8 19.4477 20.2477 19 20.8 19H21.0652L23.0988 13.537L18.9999 12.2237V27.3332H22.5C23.0523 27.3332 23.5 27.7809 23.5 28.3332C23.5 28.8855 23.0523 29.3332 22.5 29.3332H13.5C12.9477 29.3332 12.5 28.8855 12.5 28.3332C12.5 27.7809 12.9477 27.3332 13.5 27.3332H16.9999V11.583L13.3795 10.423L14.8656 14.6H15.1199C15.6722 14.6 16.1199 15.0477 16.1199 15.6C16.1199 16.0213 15.8594 16.3817 15.4908 16.529C15.3364 17.0399 15.0665 17.5675 14.7008 18.0247C14.078 18.8032 13.0917 19.48 11.7599 19.48C10.2922 19.48 9.22886 18.8542 8.52769 18.0634C8.10196 17.5833 7.81219 17.0473 7.62964 16.5572C7.21892 16.4328 6.91992 16.0513 6.91992 15.6C6.91992 15.0477 7.36764 14.6 7.91992 14.6H8.21953L10.4106 9.46771L8.57142 8.87121C8.04607 8.70083 7.75832 8.13683 7.9287 7.61149C8.09908 7.08614 8.66308 6.79839 9.18843 6.96877L12.065 7.90173L12.0684 7.90282L16.9999 9.48281V6.95999C16.9999 6.40771 17.4476 5.95999 17.9999 5.95999ZM11.6752 11.5993L12.7428 14.6H10.3942L11.6752 11.5993ZM9.91148 16.6H13.2671C13.2279 16.6588 13.1853 16.7175 13.1391 16.7753C12.8019 17.1968 12.3482 17.48 11.7599 17.48C10.9237 17.48 10.387 17.1458 10.0242 16.7366C9.98461 16.692 9.94707 16.6463 9.91148 16.6ZM24.4009 15.772L23.1993 19H25.6012L24.4009 15.772ZM26.0453 21H22.7562C22.795 21.0554 22.8363 21.1097 22.88 21.1626C23.2208 21.5746 23.6941 21.88 24.4014 21.88C25.1086 21.88 25.5812 21.5747 25.9214 21.163C25.9652 21.11 26.0065 21.0555 26.0453 21Z" fill="#FA7E47"/>
</g>
<defs>
<clipPath id="clip0_1715_1491">
<rect width="24" height="24" fill="white" transform="translate(6 6)"/>
</clipPath>
</defs>
</svg>
