<svg width="36" height="36" viewBox="0 0 36 36" fill="none" xmlns="http://www.w3.org/2000/svg">
<rect width="36" height="36" rx="8" fill="white"/>
<path fill-rule="evenodd" clip-rule="evenodd" d="M20.462 8.49324C21.2508 8.1664 22.0963 7.99817 22.9501 7.99817C23.804 7.99817 24.6495 8.1664 25.4383 8.49324C26.2269 8.82003 26.9435 9.29897 27.5471 9.90272C28.1508 10.5063 28.6301 11.2232 28.9569 12.0118C29.2837 12.8007 29.4519 13.6461 29.4519 14.5C29.4519 15.3538 29.2837 16.1993 28.9569 16.9881C28.6301 17.7769 28.1511 18.4935 27.5472 19.0971C27.5472 19.0972 27.5473 19.097 27.5472 19.0971L18.7072 27.9371C18.3167 28.3276 17.6835 28.3276 17.293 27.9371L8.45301 19.0971C7.23378 17.8779 6.54883 16.2242 6.54883 14.5C6.54883 12.7757 7.23378 11.1221 8.45301 9.90289C9.67224 8.68366 11.3259 7.9987 13.0501 7.9987C14.7744 7.9987 16.428 8.68366 17.6472 9.90289L18.0001 10.2558L18.3528 9.90305C18.3528 9.90311 18.3529 9.903 18.3528 9.90305C18.9564 9.29923 19.6732 8.82006 20.462 8.49324ZM22.9501 9.99817C22.359 9.99817 21.7737 10.1146 21.2276 10.3409C20.6815 10.5672 20.1853 10.8988 19.7674 11.3169L18.7072 12.3771C18.3167 12.7676 17.6835 12.7676 17.293 12.3771L16.233 11.3171C15.3889 10.4729 14.2439 9.9987 13.0501 9.9987C11.8563 9.9987 10.7114 10.4729 9.86723 11.3171C9.02307 12.1613 8.54883 13.3062 8.54883 14.5C8.54883 15.6938 9.02307 16.8387 9.86723 17.6829L18.0001 25.8158L26.133 17.6829C26.5511 17.265 26.8829 16.7687 27.1092 16.2226C27.3355 15.6765 27.4519 15.0911 27.4519 14.5C27.4519 13.9089 27.3355 13.3235 27.1092 12.7774C26.8829 12.2313 26.5513 11.7352 26.1332 11.3173C25.7153 10.8992 25.2188 10.5672 24.6727 10.3409C24.1266 10.1146 23.5412 9.99817 22.9501 9.99817Z" fill="#E8467C"/>
</svg>
