<svg width="36" height="36" viewBox="0 0 36 36" fill="none" xmlns="http://www.w3.org/2000/svg">
<rect width="36" height="36" rx="8" fill="white"/>
<path fill-rule="evenodd" clip-rule="evenodd" d="M15 13C15 11.3431 16.3431 10 18 10C19.6569 10 21 11.3431 21 13C21 14.6569 19.6569 16 18 16C16.3431 16 15 14.6569 15 13ZM18 8C15.2386 8 13 10.2386 13 13C13 15.7614 15.2386 18 18 18C20.7614 18 23 15.7614 23 13C23 10.2386 20.7614 8 18 8ZM14 20C12.6739 20 11.4021 20.5268 10.4645 21.4645C9.52678 22.4021 9 23.6739 9 25V27C9 27.5523 9.44772 28 10 28C10.5523 28 11 27.5523 11 27V25C11 24.2043 11.3161 23.4413 11.8787 22.8787C12.4413 22.3161 13.2044 22 14 22H22C22.7956 22 23.5587 22.3161 24.1213 22.8787C24.6839 23.4413 25 24.2044 25 25V27C25 27.5523 25.4477 28 26 28C26.5523 28 27 27.5523 27 27V25C27 23.6739 26.4732 22.4021 25.5355 21.4645C24.5979 20.5268 23.3261 20 22 20H14Z" fill="#1E1D21"/>
</svg>
