<svg width="37" height="36" viewBox="0 0 37 36" fill="none" xmlns="http://www.w3.org/2000/svg">
<rect x="0.5" width="36" height="36" rx="8" fill="#FFDFEA"/>
<path fill-rule="evenodd" clip-rule="evenodd" d="M20.962 8.49324C21.7508 8.1664 22.5963 7.99817 23.4501 7.99817C24.304 7.99817 25.1495 8.1664 25.9383 8.49324C26.7269 8.82003 27.4435 9.29897 28.0471 9.90272C28.6508 10.5063 29.1301 11.2232 29.4569 12.0118C29.7837 12.8007 29.9519 13.6461 29.9519 14.5C29.9519 15.3538 29.7837 16.1993 29.4569 16.9881C29.1301 17.7769 28.6511 18.4935 28.0472 19.0971C28.0472 19.0972 28.0473 19.097 28.0472 19.0971L19.2072 27.9371C18.8167 28.3276 18.1835 28.3276 17.793 27.9371L8.95301 19.0971C7.73378 17.8779 7.04883 16.2242 7.04883 14.5C7.04883 12.7757 7.73378 11.1221 8.95301 9.90289C10.1722 8.68366 11.8259 7.9987 13.5501 7.9987C15.2744 7.9987 16.928 8.68366 18.1472 9.90289L18.5001 10.2558L18.8528 9.90305C18.8528 9.90311 18.8529 9.903 18.8528 9.90305C19.4564 9.29923 20.1732 8.82006 20.962 8.49324ZM23.4501 9.99817C22.859 9.99817 22.2737 10.1146 21.7276 10.3409C21.1815 10.5672 20.6853 10.8988 20.2674 11.3169L19.2072 12.3771C18.8167 12.7676 18.1835 12.7676 17.793 12.3771L16.733 11.3171C15.8889 10.4729 14.7439 9.9987 13.5501 9.9987C12.3563 9.9987 11.2114 10.4729 10.3672 11.3171C9.52307 12.1613 9.04883 13.3062 9.04883 14.5C9.04883 15.6938 9.52307 16.8387 10.3672 17.6829L18.5001 25.8158L26.633 17.6829C27.0511 17.265 27.3829 16.7687 27.6092 16.2226C27.8355 15.6765 27.9519 15.0911 27.9519 14.5C27.9519 13.9089 27.8355 13.3235 27.6092 12.7774C27.3829 12.2313 27.0513 11.7352 26.6332 11.3173C26.2153 10.8992 25.7188 10.5672 25.1727 10.3409C24.6266 10.1146 24.0412 9.99817 23.4501 9.99817Z" fill="#E8467C"/>
</svg>
