<svg xmlns="http://www.w3.org/2000/svg" aria-hidden="true" style="position:absolute;width:0;height:0;overflow:hidden"><defs><symbol id="arrow-up-right" viewBox="0 0 32 32"><path d="M9.333 22.667 22.666 9.334M9.333 9.333h13.333v13.333" style="stroke:var(--color1, #5826da)"/></symbol><symbol id="eye" viewBox="0 0 32 32"><path d="M17.689 4.105q2.658.334 5.184 1.727 2.601 1.435 4.933 3.922 1.645 1.754 3.001 3.855.426.659.774 1.278.18.32.278.516.07.141.106.29T32 16t-.035.307-.106.29q-.098.196-.278.516-.348.619-.774 1.278-1.357 2.101-3.001 3.855-2.332 2.487-4.933 3.922-2.525 1.393-5.184 1.727-.838.105-1.69.105t-1.689-.105q-2.658-.334-5.184-1.727-2.601-1.435-4.933-3.922-1.645-1.754-3.002-3.855-.426-.659-.774-1.278-.18-.32-.278-.516-.07-.141-.106-.29T-.002 16t.035-.307.106-.29q.098-.196.278-.516.348-.619.774-1.278 1.357-2.101 3.002-3.855 2.332-2.487 4.933-3.922 2.525-1.393 5.184-1.727Q15.148 4 15.999 4t1.689.105zM14.96 6.717q-2.321.224-4.545 1.451Q8.183 9.4 6.139 11.579q-1.48 1.579-2.707 3.478-.314.486-.578.943.264.457.578.943 1.227 1.899 2.707 3.478 2.043 2.18 4.276 3.411 2.224 1.227 4.545 1.451.518.05 1.041.05t1.041-.05q2.321-.224 4.545-1.451 2.232-1.232 4.275-3.411 1.48-1.579 2.707-3.478.314-.486.578-.943-.264-.457-.578-.943-1.227-1.899-2.707-3.478-2.043-2.18-4.275-3.411-2.224-1.227-4.544-1.451-.518-.05-1.041-.05t-1.04.05zm-.105 14.494q.559.123 1.145.123t1.145-.123q.476-.104.932-.297t.863-.462q.446-.295.832-.681t.681-.832q.269-.407.462-.863t.297-.932q.123-.559.123-1.145t-.123-1.145q-.104-.476-.297-.932t-.462-.863q-.295-.446-.681-.832t-.832-.681q-.407-.269-.863-.462t-.932-.297q-.559-.122-1.145-.122t-1.145.122q-.476.104-.932.297t-.863.462q-.446.295-.832.681t-.681.832q-.269.407-.462.863t-.297.932q-.122.559-.122 1.145t.122 1.145q.104.475.297.932t.462.863q.295.446.681.832t.832.681q.406.269.863.462t.932.297zm1.759-2.615q-.299.07-.614.07t-.614-.07q-.216-.051-.423-.139-.217-.092-.412-.218-.234-.152-.436-.354t-.354-.436q-.126-.195-.218-.412-.088-.207-.139-.423-.07-.299-.07-.614t.07-.614q.051-.216.139-.423.092-.217.218-.412.152-.234.354-.436t.436-.354q.195-.126.412-.218.207-.088.423-.139.299-.07.614-.07t.614.07q.216.051.423.139.217.092.412.218.234.152.436.354t.354.436q.126.195.218.412.088.207.139.423.07.299.07.614t-.07.614q-.051.216-.139.423-.092.217-.218.412-.152.234-.354.436t-.436.354q-.195.126-.412.218-.207.088-.423.139z"/></symbol><symbol id="icon--shield" viewBox="0 0 32 32"><path d="M15.48.089a1.572 1.572 0 0 1 1.04 0l11.852 4.182c.578.204.961.724.961 1.305v9.758c0 4.804-3.38 8.643-6.432 11.155a33.526 33.526 0 0 1-6.079 3.953l-.113.055-.032.015-.01.005-.003.001c-.001 0-.002.001-.665-1.246l-.663 1.246-.004-.002-.01-.005-.032-.015-.113-.055a31.493 31.493 0 0 1-1.815-.989 33.591 33.591 0 0 1-4.264-2.964c-3.051-2.512-6.432-6.351-6.432-11.155V5.575c0-.581.383-1.101.961-1.305L15.479.088zm-.143 30.43L16 29.273l.663 1.247a1.569 1.569 0 0 1-1.326 0zM16 27.688a30.643 30.643 0 0 0 4.951-3.297c2.874-2.367 5.42-5.498 5.42-9.057V6.542l-10.37-3.659-10.37 3.659v8.792c0 3.559 2.546 6.691 5.42 9.057a30.54 30.54 0 0 0 4.951 3.297zm4.928-14.731a1.332 1.332 0 1 0-1.856-1.914L14.5 15.476l-1.572-1.524a1.332 1.332 0 1 0-1.856 1.914l2.5 2.424a1.333 1.333 0 0 0 1.857 0l5.5-5.333z"/></symbol><symbol id="icon-activity" viewBox="0 0 32 32"><path d="M12 2.667c.574 0 1.084.367 1.265.912L20 23.784l2.735-8.205A1.334 1.334 0 0 1 24 14.667h5.333a1.333 1.333 0 0 1 0 2.666h-4.372l-3.696 11.088a1.334 1.334 0 0 1-2.53 0L12 8.216l-2.735 8.205A1.334 1.334 0 0 1 8 17.333H2.667a1.333 1.333 0 0 1 0-2.666h4.372l3.696-11.088A1.334 1.334 0 0 1 12 2.667z" /></symbol><symbol id="icon-battery" viewBox="0 0 32 32"><path d="M9.333 26c0 .548.209 1.062.566 1.434.355.369.824.566 1.301.566h9.6c.477 0 .946-.197 1.301-.566.356-.371.566-.886.566-1.434V7.667c0-.548-.209-1.062-.566-1.434a1.806 1.806 0 0 0-1.301-.566H20a2.115 2.115 0 0 1-1.527-.654A2.172 2.172 0 0 1 17.925 4h-3.849a2.186 2.186 0 0 1-.548 1.013 2.116 2.116 0 0 1-1.527.654h-.8c-.477 0-.946.197-1.301.566a2.074 2.074 0 0 0-.566 1.434V26zm-1.358 3.28A4.738 4.738 0 0 1 6.666 26V7.667c0-1.221.465-2.401 1.309-3.28A4.47 4.47 0 0 1 11.2 3.001h.324c.088-.375.274-.727.548-1.013a2.119 2.119 0 0 1 1.528-.654h4.8c.584 0 1.132.242 1.528.654.274.286.461.637.548 1.013h.324a4.47 4.47 0 0 1 3.225 1.386 4.738 4.738 0 0 1 1.309 3.28V26a4.736 4.736 0 0 1-1.309 3.28 4.467 4.467 0 0 1-3.225 1.386h-9.6a4.47 4.47 0 0 1-3.225-1.386zm3.492-4.947c0-.736.597-1.333 1.333-1.333h6.4a1.333 1.333 0 0 1 0 2.666h-6.4a1.333 1.333 0 0 1-1.333-1.333zm0-5c0-.736.597-1.333 1.333-1.333h6.4a1.333 1.333 0 0 1 0 2.666h-6.4a1.333 1.333 0 0 1-1.333-1.333zm0-5c0-.736.597-1.333 1.333-1.333h6.4a1.333 1.333 0 0 1 0 2.666h-6.4a1.333 1.333 0 0 1-1.333-1.333z"/></symbol><symbol id="icon-bell" viewBox="0 0 32 32"><path d="M28.821 22.089c-1.15-1.189-3.302-2.979-3.302-8.839 0-4.452-3.243-8.015-7.615-8.889V3.167c0-1.012-.853-1.833-1.904-1.833s-1.904.821-1.904 1.833v1.194c-4.373.874-7.615 4.438-7.615 8.889 0 5.861-2.152 7.65-3.302 8.839a1.76 1.76 0 0 0-.513 1.244c.006.94.773 1.833 1.911 1.833h22.845c1.138 0 1.905-.894 1.911-1.833a1.75 1.75 0 0 0-.513-1.244zm-22.135.328c1.263-1.602 2.644-4.258 2.651-9.133 0-.011-.004-.022-.004-.033 0-3.544 2.985-6.417 6.667-6.417s6.667 2.873 6.667 6.417c0 .011-.004.022-.004.033.007 4.876 1.388 7.532 2.651 9.133H6.687zM16 30.667c2.102 0 3.808-1.641 3.808-3.667h-7.616c0 2.025 1.705 3.667 3.808 3.667z"/></symbol><symbol id="icon-building" viewBox="0 0 32 32"><path d="M3.758 4c0-.736.597-1.333 1.333-1.333h21.818a1.333 1.333 0 0 1 .242 2.644v21.355H28a1.333 1.333 0 0 1 0 2.666H4a1.333 1.333 0 0 1 0-2.666h.848V5.311A1.334 1.334 0 0 1 3.757 4zm3.757 1.333v21.333h2.788v-3.167c0-1.671 1.442-2.833 2.97-2.833h5.455c1.528 0 2.97 1.162 2.97 2.833v3.167h2.788V5.333H7.516zM19.03 26.667V23.5c0-.006 0-.034-.047-.078a.377.377 0 0 0-.256-.089h-5.455a.377.377 0 0 0-.256.089c-.047.043-.047.072-.047.078v3.167h6.061zM10.303 9c0-.736.597-1.333 1.333-1.333h2.182a1.333 1.333 0 0 1 0 2.666h-2.182A1.333 1.333 0 0 1 10.303 9zm6.546 0c0-.736.597-1.333 1.333-1.333h2.182a1.333 1.333 0 0 1 0 2.666h-2.182A1.333 1.333 0 0 1 16.849 9zm-6.546 4c0-.736.597-1.333 1.333-1.333h2.182a1.333 1.333 0 0 1 0 2.666h-2.182A1.333 1.333 0 0 1 10.303 13zm6.546 0c0-.736.597-1.333 1.333-1.333h2.182a1.333 1.333 0 0 1 0 2.666h-2.182A1.333 1.333 0 0 1 16.849 13zm-6.546 4c0-.736.597-1.333 1.333-1.333h2.182a1.333 1.333 0 0 1 0 2.666h-2.182A1.333 1.333 0 0 1 10.303 17zm6.546 0c0-.736.597-1.333 1.333-1.333h2.182a1.333 1.333 0 0 1 0 2.666h-2.182A1.333 1.333 0 0 1 16.849 17z"/></symbol><symbol id="icon-camera" viewBox="0 0 32 32"><path d="M10.891 3.26A1.333 1.333 0 0 1 12 2.666h8c.446 0 .862.223 1.109.594l2.271 3.406H28a4.003 4.003 0 0 1 4 4v14.667a4.001 4.001 0 0 1-4 4H4a4.001 4.001 0 0 1-4-4V10.666a4.003 4.003 0 0 1 4-4h4.62l2.271-3.406zm1.823 2.073-2.271 3.406a1.333 1.333 0 0 1-1.109.594H4.001a1.33 1.33 0 0 0-1.333 1.334v14.667a1.333 1.333 0 0 0 1.333 1.334h24a1.33 1.33 0 0 0 1.333-1.334V10.667a1.333 1.333 0 0 0-1.333-1.334h-5.333c-.446 0-.862-.223-1.109-.594l-2.271-3.406h-6.573zm3.286 8a4 4 0 1 0 0 8 4 4 0 0 0 0-8zm-6.667 4a6.667 6.667 0 1 1 13.334 0 6.667 6.667 0 0 1-13.334 0z"/></symbol><symbol id="icon-cart-added" viewBox="0 0 32 32"><path d="M0 1.391C0 .623.597 0 1.333 0h5.333c.636 0 1.183.468 1.307 1.118l1.12 5.838h21.573c.397 0 .774.185 1.027.504s.357.74.282 1.148L29.84 20.291a4.208 4.208 0 0 1-1.415 2.438 3.898 3.898 0 0 1-2.571.922H12.917a3.898 3.898 0 0 1-2.571-.922 4.209 4.209 0 0 1-1.415-2.437L6.704 8.68a1.1 1.1 0 0 1-.022-.117L5.573 2.782h-4.24C.597 2.782 0 2.159 0 1.391zm9.628 8.348 1.92 10.011c.061.32.228.608.472.813s.549.313.862.307h13.012a1.3 1.3 0 0 0 .862-.307c.243-.204.409-.49.471-.808l1.83-10.015H9.63zm14.627 4.012c.481-.502.481-1.315 0-1.816s-1.26-.501-1.741 0l-3.437 3.587-1.591-1.661c-.481-.501-1.26-.501-1.741 0s-.481 1.315 0 1.816l2.462 2.569c.481.502 1.26.502 1.741 0l4.308-4.495zM12 26.435c-1.473 0-2.667 1.246-2.667 2.783s1.194 2.783 2.667 2.783c1.473 0 2.667-1.246 2.667-2.783S13.473 26.435 12 26.435zm14.667 0c-1.473 0-2.667 1.246-2.667 2.783s1.194 2.783 2.667 2.783c1.473 0 2.667-1.246 2.667-2.783s-1.194-2.783-2.667-2.783z" /></symbol><symbol id="icon-cart-purple" viewBox="0 0 32 32"><path d="M0 2.667c0-.736.597-1.333 1.333-1.333h5.333c.636 0 1.183.448 1.307 1.072l1.12 5.595h21.573a1.333 1.333 0 0 1 1.309 1.583L29.84 20.781a4.003 4.003 0 0 1-3.986 3.221H12.917a3.997 3.997 0 0 1-3.986-3.219L6.704 9.654a1.055 1.055 0 0 1-.022-.112l-1.109-5.54h-4.24A1.333 1.333 0 0 1 0 2.669zm9.628 8 1.92 9.594a1.332 1.332 0 0 0 1.334 1.073h13.012a1.335 1.335 0 0 0 1.333-1.069l1.83-9.598H9.63zm-.295 18.666a2.667 2.667 0 1 1 5.334 0 2.667 2.667 0 0 1-5.334 0zm14.667 0a2.667 2.667 0 1 1 5.334 0 2.667 2.667 0 0 1-5.334 0z"/></symbol><symbol id="icon-cart-white" viewBox="0 0 32 32"><path d="M0 2.667c0-.736.597-1.333 1.333-1.333h5.333c.636 0 1.183.448 1.307 1.072l1.12 5.595h21.573a1.333 1.333 0 0 1 1.309 1.583L29.84 20.781a4.003 4.003 0 0 1-3.986 3.221H12.917a3.997 3.997 0 0 1-3.986-3.219L6.704 9.654a1.055 1.055 0 0 1-.022-.112l-1.109-5.54h-4.24A1.333 1.333 0 0 1 0 2.669zm9.628 8 1.92 9.594a1.332 1.332 0 0 0 1.334 1.073h13.012a1.335 1.335 0 0 0 1.333-1.069l1.83-9.598H9.63zm-.295 18.666a2.667 2.667 0 1 1 5.334 0 2.667 2.667 0 0 1-5.334 0zm14.667 0a2.667 2.667 0 1 1 5.334 0 2.667 2.667 0 0 1-5.334 0z"/></symbol><symbol id="icon-catalogue-black" viewBox="0 0 32 32"><path d="M8 6.333A1.665 1.665 0 0 0 6.333 8v3A1.665 1.665 0 0 0 8 12.667h3A1.663 1.663 0 0 0 12.667 11V8A1.663 1.663 0 0 0 11 6.333H8zM4.936 4.936A4.332 4.332 0 0 1 8 3.667h3A4.337 4.337 0 0 1 15.333 8v3A4.337 4.337 0 0 1 11 15.333H8A4.337 4.337 0 0 1 3.667 11V8c0-1.149.457-2.251 1.269-3.064zM21 6.333A1.665 1.665 0 0 0 19.333 8v3A1.665 1.665 0 0 0 21 12.667h3A1.663 1.663 0 0 0 25.667 11V8A1.665 1.665 0 0 0 24 6.333h-3zm-3.064-1.397A4.332 4.332 0 0 1 21 3.667h3A4.337 4.337 0 0 1 28.333 8v3A4.337 4.337 0 0 1 24 15.333h-3A4.337 4.337 0 0 1 16.667 11V8c0-1.149.457-2.251 1.269-3.064zM8 19.333A1.665 1.665 0 0 0 6.333 21v3A1.665 1.665 0 0 0 8 25.667h3A1.665 1.665 0 0 0 12.667 24v-3A1.663 1.663 0 0 0 11 19.333H8zm-3.064-1.397A4.332 4.332 0 0 1 8 16.667h3A4.337 4.337 0 0 1 15.333 21v3A4.337 4.337 0 0 1 11 28.333H8A4.337 4.337 0 0 1 3.667 24v-3c0-1.149.457-2.251 1.269-3.064zM21 19.333A1.665 1.665 0 0 0 19.333 21v3A1.665 1.665 0 0 0 21 25.667h3A1.665 1.665 0 0 0 25.667 24v-3A1.665 1.665 0 0 0 24 19.333h-3zm-3.064-1.397A4.332 4.332 0 0 1 21 16.667h3A4.337 4.337 0 0 1 28.333 21v3A4.337 4.337 0 0 1 24 28.333h-3A4.337 4.337 0 0 1 16.667 24v-3c0-1.149.457-2.251 1.269-3.064z"/></symbol><symbol id="icon-catalogue-white" viewBox="0 0 32 32"><path d="M8 6.333A1.665 1.665 0 0 0 6.333 8v3A1.665 1.665 0 0 0 8 12.667h3A1.663 1.663 0 0 0 12.667 11V8A1.663 1.663 0 0 0 11 6.333H8zM4.936 4.936A4.332 4.332 0 0 1 8 3.667h3A4.337 4.337 0 0 1 15.333 8v3A4.337 4.337 0 0 1 11 15.333H8A4.337 4.337 0 0 1 3.667 11V8c0-1.149.457-2.251 1.269-3.064zM21 6.333A1.665 1.665 0 0 0 19.333 8v3A1.665 1.665 0 0 0 21 12.667h3A1.663 1.663 0 0 0 25.667 11V8A1.665 1.665 0 0 0 24 6.333h-3zm-3.064-1.397A4.332 4.332 0 0 1 21 3.667h3A4.337 4.337 0 0 1 28.333 8v3A4.337 4.337 0 0 1 24 15.333h-3A4.337 4.337 0 0 1 16.667 11V8c0-1.149.457-2.251 1.269-3.064zM8 19.333A1.665 1.665 0 0 0 6.333 21v3A1.665 1.665 0 0 0 8 25.667h3A1.665 1.665 0 0 0 12.667 24v-3A1.663 1.663 0 0 0 11 19.333H8zm-3.064-1.397A4.332 4.332 0 0 1 8 16.667h3A4.337 4.337 0 0 1 15.333 21v3A4.337 4.337 0 0 1 11 28.333H8A4.337 4.337 0 0 1 3.667 24v-3c0-1.149.457-2.251 1.269-3.064zM21 19.333A1.665 1.665 0 0 0 19.333 21v3A1.665 1.665 0 0 0 21 25.667h3A1.665 1.665 0 0 0 25.667 24v-3A1.665 1.665 0 0 0 24 19.333h-3zm-3.064-1.397A4.332 4.332 0 0 1 21 16.667h3A4.337 4.337 0 0 1 28.333 21v3A4.337 4.337 0 0 1 24 28.333h-3A4.337 4.337 0 0 1 16.667 24v-3c0-1.149.457-2.251 1.269-3.064z"/></symbol><symbol id="icon-charge" viewBox="0 0 32 32"><path d="M14.4 12q-1.398 0-1.962.014-.857.021-1.375.09-.501.066-.801.188-.235.095-.39.248-.152.15-.247.376-.121.29-.188.777-.069.507-.091 1.347-.014.554-.014 1.929v3.395q0 1.375.014 1.93.022.841.091 1.347.066.486.188.776.094.226.248.377.154.152.389.247.3.122.801.188.518.069 1.375.09.564.014 1.962.014h3.2q1.398 0 1.961-.014.857-.021 1.375-.09.501-.066.801-.188.235-.095.39-.248.152-.15.247-.376.121-.29.188-.776.069-.506.091-1.347.014-.554.014-1.93v-3.395q0-1.375-.014-1.929-.022-.841-.091-1.347-.066-.487-.188-.777-.094-.226-.247-.377-.155-.152-.389-.247-.3-.122-.801-.188-.518-.069-1.375-.09Q18.998 12 17.601 12h-3.2zm0-2.667h3.2q1.431 0 2.028.015 1 .025 1.659.112.837.111 1.452.36.726.294 1.26.82.535.528.836 1.249.255.612.369 1.444.089.652.114 1.64.015.589.015 1.998v3.395q0 1.41-.015 1.998-.025.988-.114 1.64-.114.832-.369 1.443-.301.721-.837 1.249-.533.525-1.259.819-.615.249-1.452.36-.659.087-1.659.112-.597.015-2.028.015h-3.2q-1.431 0-2.028-.015-1-.025-1.659-.112-.837-.111-1.452-.36-.726-.294-1.26-.82-.535-.527-.836-1.248-.255-.612-.369-1.443-.089-.652-.114-1.64-.015-.588-.015-1.998v-3.395q0-1.409.015-1.998.025-.988.114-1.64.114-.832.369-1.444.301-.721.837-1.249.533-.525 1.259-.819.615-.249 1.452-.36.659-.087 1.659-.112.597-.015 2.028-.015zm2.933 17.334v2.667h-2.667v-2.667h2.667zm-.266-9.867-2 2.667-1.067-.8v-1.333h6.667l-3.6 4.8-2.133-1.6 2-2.667 1.067.8V20h-6.667l3.6-4.8 2.133 1.6zm-2.4-11.467h2.667V8h-2.667V5.333zm4.666 5.334V7.334q0-.865-.007-1.213-.01-.524-.043-.842-.051-.498-.175-.684-.148-.221-.368-.368-.187-.125-.685-.175-.319-.032-.843-.043-.349-.007-1.213-.007-.865 0-1.214.007-.524.01-.842.043-.498.051-.684.175-.221.148-.368.368-.125.186-.175.685-.032.318-.042.842-.007.349-.007 1.213v3.333H10V7.335q0-.891.007-1.265.012-.633.056-1.06.056-.55.182-.973.152-.51.429-.923.442-.662 1.104-1.104.414-.277.924-.429.423-.126.973-.182.427-.043 1.061-.056.375-.007 1.266-.007.89 0 1.265.007.633.012 1.06.056.55.056.973.182.51.152.923.429.662.442 1.104 1.104.277.414.429.924.126.423.182.973.043.427.056 1.06.007.375.007 1.265v3.333h-2.667zm-4.64 16.026-.027-.027c0-.747.587-1.333 1.333-1.333s1.333.587 1.333 1.333l-.027.027h-2.613zm2.614 2.614.027.027c0 .747-.587 1.333-1.333 1.333s-1.333-.587-1.333-1.333l.027-.027h2.613zm-2.368-14.07-.005-.037c.448-.597 1.269-.715 1.867-.267s.715 1.269.267 1.867l-.037.005-2.091-1.568zm2.122 6.859.005.037c-.448.597-1.269.715-1.867.267s-.715-1.269-.267-1.867l.037-.005 2.091 1.568zM14.693 7.973 14.666 8c-.747 0-1.333-.587-1.333-1.333s.587-1.333 1.333-1.333l.027.027v2.613zm2.614-2.613.027-.027c.747 0 1.333.587 1.333 1.333s-.587 1.333-1.333 1.333l-.027-.027V5.359z"/></symbol><symbol id="icon-chevron-down" viewBox="0 0 32 32"><path d="M7.057 11.057a1.333 1.333 0 0 1 1.886 0L16 18.114l7.057-7.057a1.333 1.333 0 1 1 1.886 1.886l-8 8a1.333 1.333 0 0 1-1.886 0l-8-8a1.333 1.333 0 0 1 0-1.886z"/></symbol><symbol id="icon-chevron-left" viewBox="0 0 32 32"><path d="M20.943 7.057a1.333 1.333 0 0 1 0 1.886L13.886 16l7.057 7.057a1.333 1.333 0 1 1-1.886 1.886l-8-8a1.333 1.333 0 0 1 0-1.886l8-8a1.333 1.333 0 0 1 1.886 0z"/></symbol><symbol id="icon-chevron-right" viewBox="0 0 32 32"><path d="M11.057 7.057a1.333 1.333 0 0 1 1.886 0l8 8a1.333 1.333 0 0 1 0 1.886l-8 8a1.333 1.333 0 1 1-1.886-1.886L18.114 16l-7.057-7.057a1.333 1.333 0 0 1 0-1.886z"/></symbol><symbol id="icon-chevron-up" viewBox="0 0 32 32"><path d="M15.057 11.057a1.333 1.333 0 0 1 1.886 0l8 8a1.333 1.333 0 1 1-1.886 1.886L16 13.886l-7.057 7.057a1.333 1.333 0 1 1-1.886-1.886l8-8z"/></symbol><symbol id="icon-clipboard-list" viewBox="0 0 32 32"><path d="M8.874 2.992c.089-.822.482-1.582 1.103-2.134S11.404 0 12.239 0h7.522c.835 0 1.641.306 2.262.858s1.014 1.312 1.103 2.134c1.149.024 2.14.082 2.989.237 1.14.208 2.11.601 2.9 1.384.906.895 1.294 2.024 1.477 3.364.175 1.289.175 2.931.175 4.965v9.094c0 2.035 0 3.676-.175 4.967-.184 1.34-.572 2.468-1.477 3.364s-2.046 1.28-3.4 1.461c-1.304.173-2.963.173-5.02.173h-9.191c-2.056 0-3.716 0-5.02-.173-1.354-.182-2.494-.565-3.4-1.461s-1.294-2.024-1.476-3.364c-.176-1.29-.176-2.932-.176-4.967v-9.094c0-2.035 0-3.676.176-4.967.181-1.34.572-2.468 1.476-3.364.79-.781 1.76-1.176 2.9-1.383.848-.155 1.841-.213 2.989-.237zm.003 2.232c-1.08.024-1.913.077-2.584.199-.851.155-1.346.405-1.712.766-.417.412-.688.99-.836 2.084-.152 1.122-.155 2.614-.155 4.749v8.93c0 2.136.003 3.626.155 4.751.149 1.093.421 1.67.836 2.082.417.412 1 .68 2.106.827 1.134.15 2.642.153 4.8.153h9.026c2.159 0 3.664-.003 4.802-.153 1.104-.147 1.688-.417 2.105-.827.417-.412.687-.99.836-2.084.152-1.124.155-2.614.155-4.749v-8.93c0-2.136-.003-3.627-.155-4.751-.149-1.092-.421-1.67-.836-2.082-.367-.362-.861-.61-1.712-.766-.671-.122-1.504-.176-2.584-.198-.096.815-.492 1.567-1.112 2.113s-1.421.847-2.25.847H12.24c-.83 0-1.631-.302-2.251-.848S8.974 6.039 8.878 5.223zm3.362-2.991c-.299 0-.586.118-.798.327s-.33.493-.33.789v1.488c0 .616.505 1.116 1.128 1.116h7.522c.299 0 .586-.118.798-.327s.33-.493.33-.789V3.349c0-.296-.119-.58-.33-.789s-.499-.327-.798-.327h-7.522zM7.35 13.767c0-.296.119-.58.33-.789s.499-.327.798-.327h.752c.299 0 .586.118.798.327a1.108 1.108 0 0 1 0 1.578 1.138 1.138 0 0 1-.798.327h-.752c-.299 0-.586-.118-.798-.327s-.33-.493-.33-.789zm5.265 0c0-.296.119-.58.33-.789s.499-.327.798-.327h9.778c.299 0 .586.118.798.327a1.107 1.107 0 0 1 0 1.578 1.136 1.136 0 0 1-.798.327h-9.778c-.299 0-.586-.118-.798-.327s-.33-.493-.33-.789zm-5.265 5.21c0-.296.119-.58.33-.789s.499-.327.798-.327h.752c.299 0 .586.118.798.327a1.108 1.108 0 0 1 0 1.578 1.138 1.138 0 0 1-.798.327h-.752c-.299 0-.586-.118-.798-.327s-.33-.493-.33-.789zm5.265 0c0-.296.119-.58.33-.789s.499-.327.798-.327h9.778c.299 0 .586.118.798.327a1.107 1.107 0 0 1 0 1.578 1.136 1.136 0 0 1-.798.327h-9.778c-.299 0-.586-.118-.798-.327s-.33-.493-.33-.789zM7.35 24.186c0-.296.119-.58.33-.789s.499-.327.798-.327h.752c.299 0 .586.118.798.327a1.108 1.108 0 0 1 0 1.578 1.138 1.138 0 0 1-.798.327h-.752c-.299 0-.586-.118-.798-.327s-.33-.493-.33-.789zm5.265 0c0-.296.119-.58.33-.789s.499-.327.798-.327h9.778c.299 0 .586.118.798.327a1.107 1.107 0 0 1 0 1.578 1.136 1.136 0 0 1-.798.327h-9.778c-.299 0-.586-.118-.798-.327s-.33-.493-.33-.789z"/></symbol><symbol id="icon-close" viewBox="0 0 32 32"><path d="m5.333 5.333 20 20m-20 0 20-20" style="stroke:var(--color3, #69657b)"/><path d="m5.333 5.333 20 20m-20 0 20-20" style="stroke:var(--color4, #000)"/></symbol><symbol id="icon-coins" viewBox="0 0 32 32"><path d="M7.63 3.255c2.716-.784 6.024-.784 8.74 0 1.363.394 2.553.977 3.431 1.737S21.334 6.777 21.334 8s-.656 2.249-1.533 3.008c-.877.76-2.068 1.343-3.431 1.737-2.716.784-6.024.784-8.74 0a10.593 10.593 0 0 1-2.297-.945v2.866c0 .138.035.287.291.523.297.275.801.574 1.587.927.672.301.973 1.09.672 1.762s-1.09.973-1.762.672a14.28 14.28 0 0 1-.788-.379v3.162c0 .138.035.287.291.523.297.275.801.574 1.587.927.672.301.973 1.09.672 1.762s-1.09.973-1.762.672c-.85-.381-1.681-.823-2.307-1.402-.668-.617-1.148-1.435-1.148-2.481V8.001c0-1.223.656-2.249 1.533-3.008S6.267 3.65 7.63 3.256zM5.333 8c0 .206.107.555.611.992s1.313.87 2.425 1.191c2.233.645 5.027.645 7.26 0 1.112-.321 1.921-.755 2.425-1.191s.611-.786.611-.992-.107-.555-.611-.992c-.504-.436-1.313-.87-2.425-1.191-2.233-.645-5.027-.645-7.26 0-1.112.321-1.921.755-2.425 1.191s-.611.786-.611.992zm8.414 6.646c1.669-.835 3.882-1.312 6.253-1.312s4.584.478 6.253 1.312c1.589.795 3.08 2.139 3.08 4.021V24c0 1.881-1.491 3.226-3.08 4.021-1.669.835-3.882 1.313-6.253 1.313s-4.584-.478-6.253-1.313c-1.589-.795-3.08-2.139-3.08-4.021v-5.333c0-1.882 1.491-3.226 3.08-4.021zm-.414 7.821V24c0 .327.3.982 1.606 1.635 1.226.613 3.013 1.031 5.061 1.031s3.834-.418 5.061-1.031c1.306-.653 1.606-1.309 1.606-1.635v-1.533a9.147 9.147 0 0 1-.413.221C24.585 23.523 22.372 24 20.001 24s-4.584-.478-6.253-1.312a7.823 7.823 0 0 1-.413-.221zm13.334-3.8c0 .328-.3.983-1.606 1.636-1.226.613-3.013 1.031-5.061 1.031s-3.835-.418-5.061-1.031c-1.306-.653-1.606-1.308-1.606-1.636s.3-.983 1.606-1.636C16.165 16.418 17.952 16 20 16s3.835.418 5.061 1.031c1.306.653 1.606 1.308 1.606 1.636z"/></symbol><symbol id="icon-compare" viewBox="0 0 32 32"><path d="M16-.053c.737 0 1.333.597 1.333 1.333v4.218l7.639 2.448 2.985 1.034a1.333 1.333 0 1 1-.874 2.519l-.313-.108 2.209 5.942h.353a1.333 1.333 0 0 1 .395 2.607 6.643 6.643 0 0 1-1.111 1.976c-.869 1.051-2.211 1.924-4.082 1.924s-3.214-.873-4.083-1.923a6.64 6.64 0 0 1-1.113-1.976 1.334 1.334 0 0 1 .394-2.607h.353l2.711-7.284-5.465-1.751v20.146h4.667a1.333 1.333 0 0 1 0 2.666h-12a1.333 1.333 0 0 1 0-2.666h4.666v-21L9.837 5.898l1.981 5.569h.339a1.333 1.333 0 0 1 .494 2.572 6.058 6.058 0 0 1-1.053 1.994c-.83 1.038-2.146 1.94-3.921 1.94-1.957 0-3.375-.834-4.31-1.889a6.411 6.411 0 0 1-1.197-2.008 1.334 1.334 0 0 1 .387-2.609h.399l2.922-6.843-2.452-.795a1.333 1.333 0 1 1 .823-2.537l3.84 1.245 6.575 2.107V1.28c0-.736.597-1.333 1.333-1.333zM7.567 7.466l1.423 4.001H5.859l1.708-4.001zm-2.352 6.667h4.474a3.233 3.233 0 0 1-.171.234c-.45.562-1.055.94-1.839.94-1.115 0-1.831-.446-2.314-.991a2.837 2.837 0 0 1-.15-.182zm19.32-1.104-1.602 4.304h3.202l-1.6-4.304zM26.727 20h-4.385c.052.074.107.146.165.217.454.549 1.085.957 2.029.957s1.573-.407 2.027-.956c.058-.071.113-.143.165-.217z"/></symbol><symbol id="icon-cores-in-cpu" viewBox="0 0 32 32"><path d="M10.444 1.333c.736 0 1.333.597 1.333 1.333v.889h2.889v-.889a1.333 1.333 0 0 1 2.666 0v.889h2.889v-.889a1.333 1.333 0 0 1 2.666 0v.889h.889a4.667 4.667 0 0 1 4.667 4.667v.889h.889a1.333 1.333 0 0 1 0 2.666h-.889v2.889h.889a1.333 1.333 0 0 1 0 2.666h-.889v2.889h.889a1.333 1.333 0 0 1 0 2.666h-.889v.889a4.667 4.667 0 0 1-4.667 4.667h-.889v.889a1.333 1.333 0 0 1-2.666 0v-.889h-2.889v.889a1.333 1.333 0 0 1-2.666 0v-.889h-2.889v.889a1.333 1.333 0 0 1-2.666 0v-.889h-.889a4.667 4.667 0 0 1-4.667-4.667v-.889h-.889a1.333 1.333 0 0 1 0-2.666h.889v-2.889h-.889a1.333 1.333 0 0 1 0-2.666h.889v-2.889h-.889a1.333 1.333 0 0 1 0-2.666h.889v-.889a4.667 4.667 0 0 1 4.667-4.667h.889v-.889c0-.736.597-1.333 1.333-1.333zM8.222 6.222a2 2 0 0 0-2 2v15.555a2 2 0 0 0 2 2h15.556a2 2 0 0 0 2-2V8.222a2 2 0 0 0-2-2H8.222zM8 9.333C8 8.597 8.597 8 9.333 8H14c.736 0 1.333.597 1.333 1.333V14c0 .736-.597 1.333-1.333 1.333H9.333A1.333 1.333 0 0 1 8 14V9.333zm2.667 1.334v2h2v-2h-2zm6-1.334C16.667 8.597 17.264 8 18 8h4.667C23.403 8 24 8.597 24 9.333V14c0 .736-.597 1.333-1.333 1.333H18A1.333 1.333 0 0 1 16.667 14V9.333zm2.666 1.334v2h2v-2h-2zM8 18c0-.736.597-1.333 1.333-1.333H14c.736 0 1.333.597 1.333 1.333v4.667c0 .736-.597 1.333-1.333 1.333H9.333A1.333 1.333 0 0 1 8 22.667V18zm2.667 1.333v2h2v-2h-2zm6-1.333c0-.736.597-1.333 1.333-1.333h4.667c.736 0 1.333.597 1.333 1.333v4.667c0 .736-.597 1.333-1.333 1.333H18a1.333 1.333 0 0 1-1.333-1.333V18zm2.666 1.333v2h2v-2h-2z"/></symbol><symbol id="icon-cpu" viewBox="0 0 32 32"><path d="M10.444 1.333c.736 0 1.333.597 1.333 1.333v.889h2.889v-.889a1.333 1.333 0 0 1 2.666 0v.889h2.889v-.889a1.333 1.333 0 0 1 2.666 0v.889h.889a4.667 4.667 0 0 1 4.667 4.667v.889h.889a1.333 1.333 0 0 1 0 2.666h-.889v2.889h.889a1.333 1.333 0 0 1 0 2.666h-.889v2.889h.889a1.333 1.333 0 0 1 0 2.666h-.889v.889a4.667 4.667 0 0 1-4.667 4.667h-.889v.889a1.333 1.333 0 0 1-2.666 0v-.889h-2.889v.889a1.333 1.333 0 0 1-2.666 0v-.889h-2.889v.889a1.333 1.333 0 0 1-2.666 0v-.889h-.889a4.667 4.667 0 0 1-4.667-4.667v-.889h-.889a1.333 1.333 0 0 1 0-2.666h.889v-2.889h-.889a1.333 1.333 0 0 1 0-2.666h.889v-2.889h-.889a1.333 1.333 0 0 1 0-2.666h.889v-.889a4.667 4.667 0 0 1 4.667-4.667h.889v-.889c0-.736.597-1.333 1.333-1.333zM8.222 6.222a2 2 0 0 0-2 2v15.555a2 2 0 0 0 2 2h15.556a2 2 0 0 0 2-2V8.222a2 2 0 0 0-2-2H8.222zM8 9.333C8 8.597 8.597 8 9.333 8h13.333c.736 0 1.333.597 1.333 1.333v13.333c0 .736-.597 1.333-1.333 1.333H9.333A1.333 1.333 0 0 1 8 22.666V9.333zm2.667 1.334v10.667h10.667V10.667H10.667z"/></symbol><symbol id="icon-design-pencil" viewBox="0 0 32 32"><path d="M1.333 16C1.333 7.9 7.899 1.333 16 1.333S30.667 7.899 30.667 16c0 6.011-3.615 11.176-8.79 13.442l-.021.009c-1.794.782-3.774 1.216-5.856 1.216s-4.063-.434-5.856-1.216l-.021-.009C4.948 27.177 1.333 22.011 1.333 16zM12 27.317c1.251.442 2.597.683 4 .683s2.749-.241 4-.683v-6.26c-.409.16-.866.276-1.333.276-.996 0-1.945-.53-2.488-.877a6.883 6.883 0 0 1-.178-.117 6.883 6.883 0 0 1-.178.117c-.543.347-1.493.877-2.488.877-.467 0-.924-.116-1.333-.276v6.26zm.416-9.024c.434.26.765.374.917.374.168 0 .552-.137 1.051-.457.215-.138.404-.277.538-.383.067-.052.118-.095.152-.123a.621.621 0 0 0 .035-.03l.005-.004.001-.001a1.333 1.333 0 0 1 1.767-.001l.001.001.005.004.035.03a6.82 6.82 0 0 0 .69.506c.5.319.883.457 1.051.457.153 0 .484-.113.917-.374l-3.584-6.272-3.584 6.272zm10.251 7.686v-7.313c0-.232-.061-.46-.176-.662l-5.333-9.333a1.334 1.334 0 0 0-2.316 0l-5.333 9.333c-.115.202-.176.43-.176.662v7.313A11.989 11.989 0 0 1 4 16C4 9.372 9.372 4 16 4s12 5.372 12 12c0 4.161-2.117 7.827-5.333 9.979z"/></symbol><symbol id="icon-diagonal" viewBox="0 0 32 32"><path d="M10.286 4c-.296 0-.555.107-.726.26a.62.62 0 0 0-.227.458v22.564c0 .141.061.31.227.458.17.153.429.26.726.26h11.429c.296 0 .555-.107.726-.26a.623.623 0 0 0 .227-.458V4.718a.618.618 0 0 0-.227-.458 1.092 1.092 0 0 0-.726-.26H10.286zM7.779 2.275a3.756 3.756 0 0 1 2.507-.942h11.429c.916 0 1.82.325 2.507.942a3.283 3.283 0 0 1 1.112 2.443v22.564c0 .947-.421 1.822-1.112 2.443a3.756 3.756 0 0 1-2.507.942H10.286c-.916 0-1.82-.325-2.507-.942a3.283 3.283 0 0 1-1.112-2.443V4.718c0-.947.42-1.822 1.112-2.443zm5.745 22.956c0-.736.597-1.333 1.333-1.333h2.286a1.333 1.333 0 0 1 0 2.666h-2.286a1.333 1.333 0 0 1-1.333-1.333z"/><path d="M17.111 9.889a1 1 0 0 1 0-2h3.333a1 1 0 0 1 1 1v3.333a1 1 0 0 1-2 0v-.919l-1.626 1.626a.999.999 0 1 1-1.414-1.414l1.626-1.626h-.919zm-5.555 3.555a1 1 0 0 1 1 1v.919l1.626-1.626a.999.999 0 1 1 1.414 1.414l-1.626 1.626h.919a1 1 0 0 1 0 2h-3.333a1 1 0 0 1-1-1v-3.333a1 1 0 0 1 1-1z"/></symbol><symbol id="icon-eye" viewBox="0 0 32 32"><path d="M17.689 4.105q2.658.334 5.184 1.727 2.601 1.435 4.933 3.922 1.645 1.754 3.002 3.855.426.659.774 1.278.18.32.278.516.071.141.106.29t.035.307-.035.307-.106.29q-.098.196-.278.516-.348.619-.774 1.278-1.357 2.101-3.002 3.855-2.332 2.487-4.933 3.922-2.525 1.393-5.184 1.727-.838.105-1.69.105t-1.689-.105q-2.659-.334-5.184-1.727-2.601-1.435-4.933-3.922-1.645-1.754-3.002-3.855-.426-.659-.774-1.278-.18-.32-.278-.516-.07-.141-.106-.29T-.002 16t.035-.307.106-.29q.098-.196.278-.516.348-.619.774-1.278 1.357-2.101 3.002-3.855 2.332-2.487 4.933-3.922 2.525-1.393 5.184-1.727Q15.148 4 15.999 4t1.689.105zM14.96 6.717q-2.321.224-4.545 1.451Q8.183 9.4 6.139 11.579q-1.48 1.579-2.707 3.478-.314.486-.578.943.264.457.578.943 1.226 1.899 2.707 3.478 2.043 2.18 4.276 3.411 2.224 1.227 4.545 1.451.518.05 1.041.05t1.041-.05q2.321-.224 4.545-1.451 2.232-1.232 4.276-3.411 1.48-1.579 2.707-3.478.314-.486.578-.943-.264-.457-.578-.943-1.226-1.899-2.707-3.478-2.043-2.18-4.276-3.411-2.224-1.227-4.544-1.451-.518-.05-1.041-.05t-1.04.05zm-.105 14.494q.559.123 1.145.123t1.145-.123q.476-.104.932-.297t.863-.462q.446-.295.832-.681t.681-.832q.269-.407.462-.863t.297-.932q.122-.559.122-1.145t-.122-1.145q-.104-.476-.297-.932t-.462-.863q-.295-.446-.681-.832t-.832-.681q-.407-.269-.863-.462t-.932-.297q-.559-.122-1.145-.122t-1.145.122q-.476.104-.932.297t-.863.462q-.446.295-.832.681t-.681.832q-.269.407-.462.863t-.297.932q-.123.559-.123 1.145t.123 1.145q.104.475.297.932t.462.863q.295.446.681.832t.832.681q.407.269.863.462t.932.297zm1.759-2.615q-.299.07-.614.07t-.614-.07q-.216-.051-.423-.139-.217-.092-.412-.218-.234-.152-.436-.354t-.354-.436q-.126-.195-.218-.412-.088-.207-.138-.423-.071-.299-.071-.614t.071-.614q.051-.216.138-.423.092-.217.218-.412.152-.234.354-.436t.436-.354q.195-.126.412-.218.207-.088.423-.139.299-.07.614-.07t.614.07q.216.051.423.139.217.092.412.218.234.152.436.354t.354.436q.126.195.218.412.088.207.138.423.071.299.071.614t-.071.614q-.051.216-.138.423-.092.217-.218.412-.152.234-.354.436t-.436.354q-.195.126-.412.218-.207.088-.423.139z"/><path d="M17.689 4.105q2.658.334 5.184 1.727 2.601 1.435 4.933 3.922 1.645 1.754 3.002 3.855.426.659.774 1.278.18.32.278.516.071.141.106.29t.035.307-.035.307-.106.29q-.098.196-.278.516-.348.619-.774 1.278-1.357 2.101-3.002 3.855-2.332 2.487-4.933 3.922-2.525 1.393-5.184 1.727-.838.105-1.69.105t-1.689-.105q-2.659-.334-5.184-1.727-2.601-1.435-4.933-3.922-1.645-1.754-3.002-3.855-.426-.659-.774-1.278-.18-.32-.278-.516-.07-.141-.106-.29T-.002 16t.035-.307.106-.29q.098-.196.278-.516.348-.619.774-1.278 1.357-2.101 3.002-3.855 2.332-2.487 4.933-3.922 2.525-1.393 5.184-1.727Q15.148 4 15.999 4t1.689.105zM14.96 6.717q-2.321.224-4.545 1.451Q8.183 9.4 6.139 11.579q-1.48 1.579-2.707 3.478-.314.486-.578.943.264.457.578.943 1.226 1.899 2.707 3.478 2.043 2.18 4.276 3.411 2.224 1.227 4.545 1.451.518.05 1.041.05t1.041-.05q2.321-.224 4.545-1.451 2.232-1.232 4.276-3.411 1.48-1.579 2.707-3.478.314-.486.578-.943-.264-.457-.578-.943-1.226-1.899-2.707-3.478-2.043-2.18-4.276-3.411-2.224-1.227-4.544-1.451-.518-.05-1.041-.05t-1.04.05zm-.105 14.494q.559.123 1.145.123t1.145-.123q.476-.104.932-.297t.863-.462q.446-.295.832-.681t.681-.832q.269-.407.462-.863t.297-.932q.122-.559.122-1.145t-.122-1.145q-.104-.476-.297-.932t-.462-.863q-.295-.446-.681-.832t-.832-.681q-.407-.269-.863-.462t-.932-.297q-.559-.122-1.145-.122t-1.145.122q-.476.104-.932.297t-.863.462q-.446.295-.832.681t-.681.832q-.269.407-.462.863t-.297.932q-.123.559-.123 1.145t.123 1.145q.104.475.297.932t.462.863q.295.446.681.832t.832.681q.407.269.863.462t.932.297zm1.759-2.615q-.299.07-.614.07t-.614-.07q-.216-.051-.423-.139-.217-.092-.412-.218-.234-.152-.436-.354t-.354-.436q-.126-.195-.218-.412-.088-.207-.138-.423-.071-.299-.071-.614t.071-.614q.051-.216.138-.423.092-.217.218-.412.152-.234.354-.436t.436-.354q.195-.126.412-.218.207-.088.423-.139.299-.07.614-.07t.614.07q.216.051.423.139.217.092.412.218.234.152.436.354t.354.436q.126.195.218.412.088.207.138.423.071.299.071.614t-.071.614q-.051.216-.138.423-.092.217-.218.412-.152.234-.354.436t-.436.354q-.195.126-.412.218-.207.088-.423.139z" opacity=".2"/></symbol><symbol id="icon-eye-off" viewBox="0 0 32 32"><path d="M23.92 23.92A13.43 13.43 0 0 1 16 26.667C6.667 26.667 1.333 16 1.333 16A24.605 24.605 0 0 1 8.08 8.08m5.12-2.427a12.161 12.161 0 0 1 2.8-.32C25.333 5.333 30.667 16 30.667 16a24.646 24.646 0 0 1-2.88 4.253m-8.96-1.426a4.003 4.003 0 0 1-5.755.103 3.994 3.994 0 0 1-1.171-2.899 4.01 4.01 0 0 1 1.273-2.855M1.333 1.333l29.333 29.333" style="stroke:var(--color3, #69657b)"/><path d="M23.92 23.92A13.43 13.43 0 0 1 16 26.667C6.667 26.667 1.333 16 1.333 16A24.605 24.605 0 0 1 8.08 8.08m5.12-2.427a12.161 12.161 0 0 1 2.8-.32C25.333 5.333 30.667 16 30.667 16a24.646 24.646 0 0 1-2.88 4.253m-8.96-1.426a4.003 4.003 0 0 1-5.755.103 3.994 3.994 0 0 1-1.171-2.899 4.01 4.01 0 0 1 1.273-2.855M1.333 1.333l29.333 29.333" style="stroke:var(--color4, #000)"/></symbol><symbol id="icon-facebook" viewBox="0 0 32 32"><path d="M24 2.4a.8.8 0 0 0-.8-.8h-4a7.634 7.634 0 0 0-8 7.2v4.32h-4a.8.8 0 0 0-.8.8v4.16a.8.8 0 0 0 .8.8h4V29.6a.8.8 0 0 0 .8.8h4.8a.8.8 0 0 0 .8-.8V18.88h4.192a.8.8 0 0 0 .785-.592l1.152-4.16a.79.79 0 0 0-.137-.693.8.8 0 0 0-.632-.315H17.6V8.8a1.6 1.6 0 0 1 1.6-1.44h4a.8.8 0 0 0 .8-.8V2.4z"/></symbol><symbol id="icon-front-camera" viewBox="0 0 32 32"><path d="M11.3 3.158a1.333 1.333 0 0 1 1.034-.491h7.333c.401 0 .78.18 1.034.491l3.267 4.009h3.767c1.141 0 2.23.464 3.027 1.28a4.367 4.367 0 0 1 1.239 3.053V25c0 1.14-.442 2.239-1.239 3.053a4.233 4.233 0 0 1-3.027 1.28H4.268a4.232 4.232 0 0 1-3.027-1.28A4.367 4.367 0 0 1 .002 25V11.5c0-1.14.442-2.239 1.239-3.053s1.886-1.28 3.027-1.28h3.767l3.267-4.009zm1.667 2.175L9.7 9.342a1.333 1.333 0 0 1-1.034.491h-4.4c-.415 0-.818.168-1.121.478-.303.31-.479.738-.479 1.189V25c0 .452.176.879.479 1.189.302.309.706.478 1.121.478h23.467c.415 0 .818-.168 1.121-.478.303-.31.479-.737.479-1.189V11.5c0-.452-.176-.879-.479-1.189a1.568 1.568 0 0 0-1.121-.478h-4.4c-.401 0-.78-.18-1.034-.491l-3.267-4.009h-6.066z"/><path d="M16.995 17.148q.486-.196.889-.598.404-.404.6-.892.184-.458.183-.991 0-.535-.186-.995-.196-.486-.598-.889c-.523-.523-1.15-.784-1.883-.783s-1.361.261-1.884.784q-.404.404-.6.892-.184.458-.183.991 0 .535.186.995.196.486.598.889.404.404.892.6.458.184.991.183.535 0 .995-.186zm-6.328 4.785v.733h10.667v-.733q0-.548-.196-1.013-.34-.81-1.271-1.371-1.467-.884-3.867-.883-2.4 0-3.867.884-.932.562-1.272 1.372-.195.464-.195 1.01z"/></symbol><symbol id="icon-headphones" viewBox="0 0 32 32"><path d="M16 5.333A10.666 10.666 0 0 0 5.334 15.999v1.333h2.667a4.001 4.001 0 0 1 4 4v4a4.003 4.003 0 0 1-4 4H6.668a4.001 4.001 0 0 1-4-4v-9.333a13.334 13.334 0 0 1 22.761-9.428c2.5 2.5 3.905 5.892 3.905 9.428v9.333a4.001 4.001 0 0 1-4 4h-1.333a4.001 4.001 0 0 1-4-4v-4a4.001 4.001 0 0 1 4-4h2.667v-1.333A10.666 10.666 0 0 0 16.001 5.333zM26.667 20H24a1.33 1.33 0 0 0-1.333 1.334v4A1.333 1.333 0 0 0 24 26.668h1.333a1.33 1.33 0 0 0 1.333-1.334v-5.333zM5.333 25.333a1.333 1.333 0 0 0 1.333 1.334h1.333a1.33 1.33 0 0 0 1.333-1.334v-4a1.333 1.333 0 0 0-1.333-1.334H5.332v5.333z"/></symbol><symbol id="icon-heart" viewBox="0 0 32 32"><path d="M19.283 3.324a8.663 8.663 0 0 1 9.447 1.879 8.664 8.664 0 0 1 0 12.26L16.943 29.25a1.333 1.333 0 0 1-1.886 0L3.27 17.463A8.668 8.668 0 1 1 15.528 5.205l.471.471.47-.47a8.683 8.683 0 0 1 2.812-1.88zM22.6 5.331a5.996 5.996 0 0 0-4.244 1.758l-1.414 1.414a1.333 1.333 0 0 1-1.886 0L13.643 7.09a6.005 6.005 0 0 0-8.488 0 6 6 0 0 0 0 8.488l10.844 10.844 10.844-10.844a6.014 6.014 0 0 0 1.759-4.244 5.992 5.992 0 0 0-1.758-4.244A6.014 6.014 0 0 0 22.6 5.331z"/></symbol><symbol id="icon-help-circle" viewBox="0 0 32 32"><path d="M16 4C9.373 4 4 9.373 4 16s5.373 12 12 12 12-5.373 12-12S22.627 4 16 4zM1.333 16C1.333 7.9 7.899 1.333 16 1.333S30.667 7.899 30.667 16c0 8.1-6.567 14.667-14.667 14.667S1.333 24.1 1.333 16zm15.011-5.301a2.67 2.67 0 0 0-2.966 1.743 1.333 1.333 0 1 1-2.515-.885 5.333 5.333 0 0 1 10.364 1.777c-.001 2.04-1.513 3.388-2.594 4.108a10.745 10.745 0 0 1-2.248 1.131l-.046.016-.015.005-.005.002-.002.001s-.002.001-.423-1.264l.422 1.265a1.334 1.334 0 0 1-.844-2.529l.021-.007.099-.037a8.08 8.08 0 0 0 1.563-.801c.919-.613 1.406-1.265 1.406-1.891v-.002c.001-.63-.221-1.24-.627-1.721s-.969-.804-1.589-.911zm-1.677 11.968c0-.736.597-1.333 1.333-1.333h.013a1.333 1.333 0 0 1 0 2.666H16a1.333 1.333 0 0 1-1.333-1.333z" /></symbol><symbol id="icon-instagram" viewBox="0 0 32 32"><path d="M16 11.834c-2.294 0-4.166 1.872-4.166 4.166s1.872 4.166 4.166 4.166c2.294 0 4.166-1.872 4.166-4.166S18.294 11.834 16 11.834zM28.494 16c0-1.725.016-3.434-.081-5.156-.097-2-.553-3.775-2.016-5.237-1.466-1.466-3.237-1.919-5.237-2.016-1.725-.097-3.434-.081-5.156-.081-1.725 0-3.434-.016-5.156.081-2 .097-3.775.553-5.237 2.016-1.466 1.466-1.919 3.237-2.016 5.237-.097 1.725-.081 3.434-.081 5.156s-.016 3.434.081 5.156c.097 2 .553 3.775 2.016 5.237 1.466 1.466 3.237 1.919 5.237 2.016 1.725.097 3.434.081 5.156.081 1.725 0 3.434.016 5.156-.081 2-.097 3.775-.553 5.237-2.016 1.466-1.466 1.919-3.237 2.016-5.237.1-1.722.081-3.431.081-5.156zM16 22.409c-3.547 0-6.409-2.863-6.409-6.409S12.454 9.591 16 9.591c3.547 0 6.409 2.862 6.409 6.409S19.546 22.409 16 22.409zm6.672-11.584c-.828 0-1.497-.669-1.497-1.497s.669-1.497 1.497-1.497a1.495 1.495 0 0 1 .573 2.88 1.482 1.482 0 0 1-.573.113z" /></symbol><symbol id="icon-laptop" viewBox="0 0 32 32"><path d="M5.009 6.667c-.333 0-.675.291-.675.74v15.466c0 .449.342.74.675.74h21.982c.333 0 .675-.291.675-.74V7.407c0-.449-.342-.74-.675-.74H5.009zm-3.342.74C1.667 5.566 3.124 4 5.009 4h21.982c1.885 0 3.342 1.565 3.342 3.407v15.466c0 .954-.391 1.834-1.03 2.461h1.364a1.333 1.333 0 0 1 0 2.666H1.334a1.333 1.333 0 0 1 0-2.666h1.364a3.448 3.448 0 0 1-1.03-2.461V7.407z"/></symbol><symbol id="icon-layers-black" viewBox="0 0 32 32"><path d="M15.404 1.474a1.332 1.332 0 0 1 1.193 0L29.93 8.141a1.334 1.334 0 0 1 0 2.386l-13.333 6.667a1.332 1.332 0 0 1-1.193 0L2.071 10.527a1.334 1.334 0 0 1 0-2.386l13.333-6.667zM5.648 9.333 16 14.509l10.352-5.176L16 4.157 5.648 9.333zm-4.174 6.071a1.332 1.332 0 0 1 1.789-.596L16 21.177l12.737-6.369a1.334 1.334 0 0 1 1.193 2.385L16.597 23.86a1.332 1.332 0 0 1-1.193 0L2.071 17.193a1.332 1.332 0 0 1-.596-1.789zm0 6.666a1.332 1.332 0 0 1 1.789-.596L16 27.843l12.737-6.369a1.334 1.334 0 0 1 1.193 2.385l-13.333 6.667a1.332 1.332 0 0 1-1.193 0L2.071 23.859a1.332 1.332 0 0 1-.596-1.789z"/></symbol><symbol id="icon-layers-white" viewBox="0 0 32 32"><path d="M15.404 1.474a1.332 1.332 0 0 1 1.193 0L29.93 8.141a1.334 1.334 0 0 1 0 2.386l-13.333 6.667a1.332 1.332 0 0 1-1.193 0L2.071 10.527a1.334 1.334 0 0 1 0-2.386l13.333-6.667zM5.648 9.333 16 14.509l10.352-5.176L16 4.157 5.648 9.333zm-4.174 6.071a1.332 1.332 0 0 1 1.789-.596L16 21.177l12.737-6.369a1.334 1.334 0 0 1 1.193 2.385L16.597 23.86a1.332 1.332 0 0 1-1.193 0L2.071 17.193a1.332 1.332 0 0 1-.596-1.789zm0 6.666a1.332 1.332 0 0 1 1.789-.596L16 27.843l12.737-6.369a1.334 1.334 0 0 1 1.193 2.385l-13.333 6.667a1.332 1.332 0 0 1-1.193 0L2.071 23.859a1.332 1.332 0 0 1-.596-1.789z"/></symbol><symbol id="icon-log-out" viewBox="0 0 32 32"><path d="M6.667 5.333a1.33 1.33 0 0 0-1.333 1.334v18.667a1.333 1.333 0 0 0 1.333 1.334H12a1.333 1.333 0 0 1 0 2.666H6.667a4.001 4.001 0 0 1-4-4V6.667a4.003 4.003 0 0 1 4-4H12a1.333 1.333 0 0 1 0 2.666H6.667zM20.39 8.391a1.333 1.333 0 0 1 1.886 0l6.667 6.667a1.333 1.333 0 0 1 0 1.886l-6.667 6.667a1.333 1.333 0 1 1-1.886-1.886l4.391-4.391H12a1.333 1.333 0 0 1 0-2.666h12.781l-4.391-4.391a1.333 1.333 0 0 1 0-1.886z"/></symbol><symbol id="icon-mail" viewBox="0 0 32 32"><path d="m3.729 7.467 11.858 8.3 11.858-8.3a1.342 1.342 0 0 0-1.191-.739H4.921c-.517 0-.971.303-1.191.739zm23.858 3.156-11.235 7.865a1.334 1.334 0 0 1-1.529 0L3.588 10.623v13.439c0 .73.603 1.333 1.333 1.333h21.333c.73 0 1.333-.603 1.333-1.333V10.623zM.92 8.062c0-2.203 1.797-4 4-4h21.333c2.203 0 4 1.797 4 4v16c0 2.203-1.797 4-4 4H4.92c-2.203 0-4-1.797-4-4v-16z"/></symbol><symbol id="icon-map-pin" viewBox="0 0 32 32"><path d="M15.994 29.342a90.481 90.481 0 0 1-.711 1.115l-.001-.001-.003-.002-.009-.006-.031-.02-.11-.072a37.248 37.248 0 0 1-1.811-1.295 41.286 41.286 0 0 1-4.264-3.722C6.007 22.268 2.667 17.8 2.667 12.786c0-3.412 1.421-6.671 3.927-9.064C9.099 1.331 12.483-.002 16-.002s6.901 1.333 9.406 3.724c2.507 2.393 3.927 5.652 3.927 9.064 0 5.014-3.339 9.482-6.387 12.553a41.3 41.3 0 0 1-5.674 4.745c-.172.118-.308.21-.402.272l-.11.072-.039.025-.003.002-.001.001L16 29.332l.716 1.125a1.334 1.334 0 0 1-1.432 0l.71-1.116zM16 2.667c-2.848 0-5.569 1.081-7.565 2.986-1.994 1.903-3.102 4.471-3.102 7.135 0 3.895 2.66 7.7 5.613 10.674A38.577 38.577 0 0 0 16 27.722a38.475 38.475 0 0 0 5.053-4.26c2.953-2.975 5.613-6.779 5.613-10.674 0-2.664-1.108-5.232-3.102-7.135-1.996-1.905-4.716-2.986-7.565-2.986zM16 8a5.333 5.333 0 1 0 0 10.666A5.333 5.333 0 0 0 16 8zm-2.667 5.333a2.667 2.667 0 1 1 5.334 0 2.667 2.667 0 0 1-5.334 0z"/></symbol><symbol id="icon-marketing" viewBox="0 0 32 32"><path d="M24 4a2.667 2.667 0 1 1-2.266 4.073l-.035-.065c-.012-.022-.026-.043-.039-.063A2.667 2.667 0 0 1 24.001 4zm-3.789 6.42a5.333 5.333 0 1 0-1.344-2.303l-7.077 4.13a5.333 5.333 0 1 0 .001 7.505l7.078 4.125a5.333 5.333 0 1 0 1.347-2.301l-7.081-4.126c.13-.461.199-.947.199-1.449s-.069-.989-.2-1.45l7.077-4.13zm-9.945 4.174.035.065c.012.022.026.043.039.063.208.379.326.815.326 1.278s-.118.899-.326 1.278l-.04.064-.035.064A2.666 2.666 0 0 1 5.332 16a2.667 2.667 0 0 1 4.933-1.406zm11.354 9.535a1.31 1.31 0 0 0 .163-.278 2.667 2.667 0 1 1-.163.279z"/></symbol><symbol id="icon-minus" viewBox="0 0 32 32"><path d="M5.333 16c0-.736.597-1.333 1.333-1.333h18.667a1.333 1.333 0 0 1 0 2.666H6.666A1.333 1.333 0 0 1 5.333 16z"/></symbol><symbol id="icon-more-pictures" viewBox="0 0 32 32"><path d="M6.667 5.333h18.667c.736 0 1.333.597 1.333 1.333V16.78l-4.39-4.391a1.333 1.333 0 0 0-1.886 0L6.199 26.581a1.332 1.332 0 0 1-.865-1.249V6.665c0-.736.597-1.333 1.333-1.333zm22.666 14.666V6.667a4 4 0 0 0-4-4H6.666a4 4 0 0 0-4 4v18.667a4 4 0 0 0 4 4h18.667a4 4 0 0 0 4-4v-5.335zm-2.666.553v4.781c0 .736-.597 1.333-1.333 1.333H9.886l11.448-11.448 5.333 5.333zm-15.334-9.885a.667.667 0 1 1-.001 1.335.667.667 0 0 1 .001-1.335zM8 11.333a3.333 3.333 0 1 0 6.665 0 3.333 3.333 0 0 0-6.665 0z"/></symbol><symbol id="icon-percentage" viewBox="0 0 32 32"><path d="M8.667 6.667a2 2 0 1 0 0 4 2 2 0 0 0 0-4zM4 8.667a4.667 4.667 0 1 1 9.334 0 4.667 4.667 0 0 1-9.334 0zm20.39-2.943a1.333 1.333 0 1 1 1.886 1.886L7.609 26.277a1.333 1.333 0 1 1-1.886-1.886L24.39 5.724zm-1.057 15.609a2 2 0 1 0-.001 3.999 2 2 0 0 0 .001-3.999zm-4.666 2a4.667 4.667 0 1 1 9.334 0 4.667 4.667 0 0 1-9.334 0z"/></symbol><symbol id="icon-phone" viewBox="0 0 32 32"><path d="M10.286 4c-.296 0-.555.107-.726.26a.62.62 0 0 0-.227.458v22.564c0 .141.061.31.227.458.17.153.429.26.726.26h11.429c.296 0 .555-.107.726-.26a.623.623 0 0 0 .227-.458V4.718a.618.618 0 0 0-.227-.458 1.092 1.092 0 0 0-.726-.26H10.286zM7.779 2.275a3.756 3.756 0 0 1 2.507-.942h11.429c.916 0 1.82.325 2.507.942a3.283 3.283 0 0 1 1.112 2.443v22.564c0 .947-.421 1.822-1.112 2.443a3.756 3.756 0 0 1-2.507.942H10.286c-.916 0-1.82-.325-2.507-.942a3.283 3.283 0 0 1-1.112-2.443V4.718c0-.947.421-1.822 1.112-2.443zm5.745 22.956c0-.736.597-1.333 1.333-1.333h2.286a1.333 1.333 0 0 1 0 2.666h-2.286a1.333 1.333 0 0 1-1.333-1.333z"/></symbol><symbol id="icon-plus" viewBox="0 0 32 32"><path d="M16 5.333c.736 0 1.333.597 1.333 1.333v8h8a1.333 1.333 0 0 1 0 2.666h-8v8a1.333 1.333 0 0 1-2.666 0v-8h-8a1.333 1.333 0 0 1 0-2.666h8v-8c0-.736.597-1.333 1.333-1.333z"/></symbol><symbol id="icon-read-more" viewBox="0 0 32 32"><path d="M18.667 12H28c.733 0 1.333-.6 1.333-1.333s-.6-1.333-1.333-1.333h-9.333c-.733 0-1.333.6-1.333 1.333S17.934 12 18.667 12zM28 20h-9.333c-.733 0-1.333.6-1.333 1.333s.6 1.333 1.333 1.333H28c.733 0 1.333-.6 1.333-1.333S28.733 20 28 20zm0-5.333h-5.333c-.733 0-1.333.6-1.333 1.333s.6 1.333 1.333 1.333H28c.733 0 1.333-.6 1.333-1.333s-.6-1.333-1.333-1.333zm-16.2-4.2a.671.671 0 0 0-.726-.138.663.663 0 0 0-.407.618v3.72H4c-.733 0-1.333.6-1.333 1.333s.6 1.333 1.333 1.333h6.667v3.72c0 .6.72.893 1.133.467l5.053-5.053a.66.66 0 0 0 0-.947L11.8 10.467z"/></symbol><symbol id="icon-search" viewBox="0 0 32 32"><path d="M2.667 14.667c0 6.627 5.373 12 12 12a11.95 11.95 0 0 0 7.49-2.624l4.9 4.9a1.333 1.333 0 1 0 1.886-1.886l-4.9-4.9a11.95 11.95 0 0 0 2.624-7.49c0-6.627-5.373-12-12-12s-12 5.373-12 12zm18.722 6.474a1.305 1.305 0 0 0-.248.248 9.333 9.333 0 1 1-6.474-16.055 9.333 9.333 0 0 1 6.722 15.807z"/></symbol><symbol id="icon-star" viewBox="0 0 32 32"><path d="M16 1.333c.507 0 .971.288 1.196.743l3.81 7.719 8.521 1.245a1.33 1.33 0 0 1 .737 2.274L24.1 19.318l1.455 8.482a1.334 1.334 0 0 1-1.934 1.405l-7.619-4.007-7.619 4.007A1.334 1.334 0 0 1 6.449 27.8l1.455-8.482-6.164-6.004a1.335 1.335 0 0 1 .737-2.274l8.52-1.245 3.81-7.719a1.334 1.334 0 0 1 1.196-.743zm0 4.346-2.924 5.924a1.332 1.332 0 0 1-1.003.729l-6.542.956 4.732 4.609c.314.306.458.748.384 1.181l-1.117 6.51 5.848-3.076a1.335 1.335 0 0 1 1.241 0l5.848 3.076-1.117-6.51a1.334 1.334 0 0 1 .384-1.181l4.733-4.609-6.542-.956a1.332 1.332 0 0 1-1.003-.729l-2.925-5.924z"/></symbol><symbol id="icon-thumbs-down" viewBox="0 0 32 32"><path d="M27.419 4.421A1.745 1.745 0 0 0 26.25 4h-2.251v12h2.25a1.745 1.745 0 0 0 1.75-1.436V5.436a1.747 1.747 0 0 0-.581-1.015zM21.333 17.05V4H7.611a1.333 1.333 0 0 0-1.334 1.133l-1.84 12a1.332 1.332 0 0 0 1.333 1.534H13.332c.736 0 1.333.597 1.333 1.333v5.333a2.67 2.67 0 0 0 1.856 2.541l4.81-10.823zm2.2 1.617-4.981 11.208a1.332 1.332 0 0 1-1.218.792 5.332 5.332 0 0 1-5.333-5.333v-4H5.795a3.997 3.997 0 0 1-3.056-1.376 4.002 4.002 0 0 1-.936-3.225l1.84-12a4.002 4.002 0 0 1 3.992-3.4h18.583a4.412 4.412 0 0 1 4.439 3.821c.008.059.012.119.012.179v9.333c0 .06-.004.119-.012.179a4.41 4.41 0 0 1-4.439 3.821h-2.683z"/></symbol><symbol id="icon-thumbs-up" viewBox="0 0 32 32"><path d="M13.448 2.125a1.332 1.332 0 0 1 1.218-.792 5.332 5.332 0 0 1 5.333 5.333v4h6.207a3.997 3.997 0 0 1 3.056 1.376 4.002 4.002 0 0 1 .936 3.225l-1.84 12a4.004 4.004 0 0 1-3.992 3.4H5.333a4.001 4.001 0 0 1-4-4v-9.333a4.003 4.003 0 0 1 4-4h3.133l4.981-11.208zM8 16H5.333a1.335 1.335 0 0 0-1.334 1.334v9.333a1.335 1.335 0 0 0 1.334 1.334H8v-12zm2.667 12h13.722a1.333 1.333 0 0 0 1.334-1.133l1.84-12a1.333 1.333 0 0 0-1.333-1.534H18.668A1.333 1.333 0 0 1 17.335 12V6.667a2.67 2.67 0 0 0-1.856-2.541l-4.81 10.823v13.05z"/></symbol><symbol id="icon-truck" viewBox="0 0 32 32"><path d="M2.963 5.333a.259.259 0 0 0-.186.087.426.426 0 0 0-.11.294v17.143c0 .122.047.227.11.293.061.065.13.087.186.087h1.295a4.81 4.81 0 0 1 1.138-2.01c.855-.9 2.031-1.419 3.271-1.419s2.416.519 3.271 1.419a4.797 4.797 0 0 1 1.138 2.01h4.85V5.713a.432.432 0 0 0-.11-.294.255.255 0 0 0-.186-.087H2.963zm15.961 20.572h-5.849a4.81 4.81 0 0 1-1.138 2.01c-.855.9-2.031 1.419-3.271 1.419s-2.416-.519-3.271-1.419a4.803 4.803 0 0 1-1.138-2.01H2.962a2.922 2.922 0 0 1-2.119-.917 3.092 3.092 0 0 1-.844-2.131V5.714c0-.787.297-1.555.844-2.131a2.925 2.925 0 0 1 2.119-.917h14.667c.808 0 1.569.338 2.119.917.548.576.844 1.344.844 2.131v.381h5.755c.588 0 1.159.18 1.641.51s.853.792 1.077 1.323l2.829 6.696c.069.164.105.341.105.519v7.714c0 .787-.297 1.555-.844 2.131-.55.578-1.31.917-2.119.917h-1.295a4.81 4.81 0 0 1-1.138 2.01c-.855.9-2.03 1.419-3.271 1.419s-2.415-.519-3.271-1.419a4.803 4.803 0 0 1-1.138-2.01zm8.818-2.667h1.295a.259.259 0 0 0 .186-.087.425.425 0 0 0 .11-.293v-6.381h-8.741v4.274a4.485 4.485 0 0 1 2.741-.941c1.241 0 2.415.519 3.271 1.419a4.797 4.797 0 0 1 1.138 2.01zm-7.149-9.429h8.063L26.61 8.965c-.031-.074-.078-.127-.126-.16s-.093-.044-.136-.044h-5.756v5.048zM8.667 22.476c-.488 0-.971.204-1.338.59-.369.388-.588.929-.588 1.506s.218 1.117.588 1.506c.367.386.85.589 1.338.589s.971-.203 1.338-.589c.369-.388.588-.929.588-1.506s-.219-1.117-.588-1.506a1.848 1.848 0 0 0-1.338-.59zm14.666 0c-.488 0-.971.204-1.338.59-.369.388-.588.929-.588 1.506s.219 1.117.588 1.506c.367.386.85.589 1.338.589s.971-.203 1.338-.589c.369-.388.588-.929.588-1.506s-.219-1.117-.588-1.506a1.848 1.848 0 0 0-1.338-.59z"/></symbol><symbol id="icon-tv" viewBox="0 0 32 32"><path d="M0 5.636c0-1.682 1.398-2.97 3.026-2.97h25.949c1.628 0 3.026 1.288 3.026 2.97V22c0 1.682-1.398 2.97-3.026 2.97H19.59v1.697h5.436a1.333 1.333 0 0 1 0 2.666H6.975a1.333 1.333 0 0 1 0-2.666h5.436V24.97H3.026C1.398 24.97 0 23.682 0 22V5.636zM15.077 24.97v1.697h1.846V24.97h-1.846zM3.333 22.303c-.24 0-.667 0-.667-.704V6c0-.667.426-.667.667-.667h25.333c.667 0 .667.542.667.667v15.641c0 .125 0 .662-.667.662H3.333z"/></symbol><symbol id="icon-twitter" viewBox="0 0 32 32"><path d="M6.125 6.645a1.332 1.332 0 0 1 1.255.572c1.968 2.879 4.331 4.076 6.953 4.348.128-1.121.431-2.229 1-3.205.835-1.432 2.192-2.485 4.131-2.875 2.68-.539 4.72.432 5.903 1.62l2.389-.447a1.333 1.333 0 0 1 1.404 1.971l-2.293 4.029c.209 5.815-1.407 9.873-4.852 12.669-1.827 1.483-4.443 2.324-7.313 2.584-2.893.261-6.164-.055-9.415-1.004a1.331 1.331 0 0 1-.689-2.086c.175-.231.42-.398.698-.477 1.635-.465 2.88-.867 4.004-1.569-1.599-.848-2.776-1.957-3.609-3.221-1.157-1.757-1.587-3.717-1.672-5.484s.169-3.404.439-4.584c.153-.673.332-1.348.579-1.993a1.329 1.329 0 0 1 1.091-.848h-.001z"/></symbol><symbol id="icon-user" viewBox="0 0 32 32"><path d="M16 2.667a6.667 6.667 0 1 0 0 13.334 6.667 6.667 0 0 0 0-13.334zm-4 6.666a4 4 0 1 1 8 0 4 4 0 0 1-8 0zM5.953 20.619a6.668 6.668 0 0 1 4.714-1.953h10.667a6.67 6.67 0 0 1 6.667 6.667V28a1.333 1.333 0 0 1-2.666 0v-2.667a4.001 4.001 0 0 0-4-4H10.668a4.001 4.001 0 0 0-4 4V28a1.333 1.333 0 0 1-2.666 0v-2.667c0-1.768.702-3.464 1.953-4.714z"/></symbol><symbol id="icon-users" viewBox="0 0 32 32"><path d="M7.286 4.619a6.668 6.668 0 1 1 9.43 9.43 6.668 6.668 0 0 1-9.43-9.43zM12 5.333a4.003 4.003 0 0 0-4 4 4.003 4.003 0 0 0 4 4 4.003 4.003 0 0 0 4-4 4.001 4.001 0 0 0-4-4zm8.042-1.49a1.333 1.333 0 0 1 1.622-.961 6.665 6.665 0 0 1 5.013 6.459 6.667 6.667 0 0 1-5.013 6.459 1.333 1.333 0 1 1-.661-2.583 3.997 3.997 0 0 0 2.168-6.328 3.996 3.996 0 0 0-2.168-1.422 1.333 1.333 0 0 1-.961-1.622zM9.333 21.333a4.001 4.001 0 0 0-4 4V28a1.333 1.333 0 0 1-2.666 0v-2.667a6.67 6.67 0 0 1 6.667-6.667h5.333a6.67 6.67 0 0 1 6.667 6.667V28a1.333 1.333 0 0 1-2.666 0v-2.667a4.001 4.001 0 0 0-4-4H9.335zm13.376-1.466a1.333 1.333 0 0 1 1.624-.958 6.668 6.668 0 0 1 5 6.416v2.674a1.333 1.333 0 0 1-2.666 0v-2.663a4 4 0 0 0-3-3.847 1.333 1.333 0 0 1-.958-1.624z" /></symbol><symbol id="icon-videocall" viewBox="0 0 32 32"><path d="M1.333 6.667c0-2.057 1.515-4 3.704-4H21.63c2.189 0 3.704 1.943 3.704 4v3.594l3.293-2.058a1.333 1.333 0 0 1 2.04 1.131v13.333a1.333 1.333 0 0 1-2.04 1.131l-3.293-2.058v3.594c0 2.057-1.515 4-3.704 4H5.037c-2.189 0-3.704-1.943-3.704-4V6.667zm21.334 12.636V25.334c0 .888-.608 1.333-1.037 1.333h-.296v-2c0-1.028-.546-1.905-1.314-2.481-.761-.571-1.73-.852-2.686-.852h-8c-.956 0-1.925.282-2.686.852-.768.576-1.314 1.453-1.314 2.481v2h-.296c-.429 0-1.037-.445-1.037-1.333V6.667c0-.888.608-1.333 1.037-1.333h16.593c.429 0 1.037.445 1.037 1.333V19.303zm2.666-.709L28 20.261v-8.522l-2.667 1.667v5.189zm-12-9.261a5.333 5.333 0 1 0 0 10.666 5.333 5.333 0 0 0 0-10.666zm-2.666 5.334a2.667 2.667 0 1 1 5.334 0 2.667 2.667 0 0 1-5.334 0zm8 10v2H8v-2c0-.033.016-.173.248-.348.239-.18.627-.319 1.086-.319h8c.458 0 .846.139 1.086.319.232.174.248.315.248.348z"/></symbol><symbol id="icon-wallet-black" viewBox="0 0 32 32"><path d="M4.364 5.576h23.273a1.455 1.455 0 0 1 1.455 1.455v1.455H2.91V7.031a1.455 1.455 0 0 1 1.454-1.455zM32 7.03v17.455a4.36 4.36 0 0 1-4.363 4.364H4.364A4.36 4.36 0 0 1 0 24.485V7.03a4.36 4.36 0 0 1 4.364-4.364h23.273A4.364 4.364 0 0 1 32 7.03zm-2.909 4.364H2.909v2.909h8.727c.803 0 1.455.651 1.455 1.455 0 .495.16 1.269.599 1.877.385.535 1.039 1.032 2.31 1.032s1.926-.497 2.31-1.032c.438-.609.599-1.383.599-1.877 0-.803.651-1.455 1.455-1.455h8.727v-2.909zm0 5.818h-7.456a6.15 6.15 0 0 1-.964 2.123c-.924 1.284-2.452 2.241-4.671 2.241s-3.747-.957-4.671-2.241a6.133 6.133 0 0 1-.964-2.123H2.909v7.273a1.455 1.455 0 0 0 1.454 1.455h23.273a1.455 1.455 0 0 0 1.455-1.455v-7.273z"/></symbol><symbol id="icon-wallet-white" viewBox="0 0 32 32"><path d="M4.364 5.576h23.273a1.455 1.455 0 0 1 1.455 1.455v1.455H2.91V7.031a1.455 1.455 0 0 1 1.454-1.455zM32 7.03v17.455a4.36 4.36 0 0 1-4.363 4.364H4.364A4.36 4.36 0 0 1 0 24.485V7.03a4.36 4.36 0 0 1 4.364-4.364h23.273A4.364 4.364 0 0 1 32 7.03zm-2.909 4.364H2.909v2.909h8.727c.803 0 1.455.651 1.455 1.455 0 .495.16 1.269.599 1.877.385.535 1.039 1.032 2.31 1.032s1.926-.497 2.31-1.032c.438-.609.599-1.383.599-1.877 0-.803.651-1.455 1.455-1.455h8.727v-2.909zm0 5.818h-7.456a6.15 6.15 0 0 1-.964 2.123c-.924 1.284-2.452 2.241-4.671 2.241s-3.747-.957-4.671-2.241a6.133 6.133 0 0 1-.964-2.123H2.909v7.273a1.455 1.455 0 0 0 1.454 1.455h23.273a1.455 1.455 0 0 0 1.455-1.455v-7.273z"/></symbol><symbol id="icon-washing-machine" viewBox="0 0 32 32"><path d="M6.667 4a1.33 1.33 0 0 0-1.333 1.334v21.333a1.333 1.333 0 0 0 1.333 1.334h18.667a1.33 1.33 0 0 0 1.333-1.334V5.334A1.333 1.333 0 0 0 25.334 4H6.667zM3.838 2.505a4.001 4.001 0 0 1 2.828-1.172h18.667a4.003 4.003 0 0 1 4 4v21.333a4.001 4.001 0 0 1-4 4H6.666a4.001 4.001 0 0 1-4-4V5.333c0-1.061.421-2.078 1.172-2.828zM24.91 5.679c.545.495.585 1.339.09 1.884l-.013.015a1.334 1.334 0 0 1-1.974-1.793l.013-.015a1.333 1.333 0 0 1 1.883-.09zM9.4 10.734a9.334 9.334 0 1 1 13.2 13.2 9.334 9.334 0 0 1-13.2-13.2zm6.6-.067a6.67 6.67 0 0 0-4.714 11.381A6.668 6.668 0 1 0 16 10.667zM12 16c.736 0 1.333.597 1.333 1.333A2.67 2.67 0 0 0 16 20a1.333 1.333 0 0 1 0 2.666 5.332 5.332 0 0 1-5.333-5.333c0-.736.597-1.333 1.333-1.333z"/></symbol><symbol id="icon-watch" viewBox="0 0 32 32"><path stroke-linejoin="round" stroke-width="2.667" d="M16 25.333a9.333 9.333 0 1 1 0-18.666 9.333 9.333 0 0 1 0 18.666zM16 12v4l2 2m4.013 5.133-.467 5.107a2.663 2.663 0 0 1-2.667 2.426h-5.773a2.667 2.667 0 0 1-2.667-2.426l-.467-5.107m.015-14.266.467-5.107a2.666 2.666 0 0 1 2.653-2.427h5.8a2.667 2.667 0 0 1 2.667 2.426l.467 5.107"/></symbol><symbol id="lucide_heart" viewBox="0 0 32 32"><path d="M14.4 8.285q-.809-.782-1.435-1.292-.702-.572-1.325-.927-.644-.368-1.275-.547-.657-.186-1.368-.186-.683 0-1.338.136-.56.117-1.099.333-.691.277-1.285.692-.408.285-.77.636-.523.507-.904 1.104-.263.413-.459.869-.256.598-.374 1.221-.102.537-.102 1.093v.014q.004 1.704 1.095 3.405.483.753 1.208 1.559.595.661 1.454 1.466l8.842 8.558 8.843-8.558q.86-.804 1.455-1.466.725-.806 1.208-1.559 1.091-1.701 1.095-3.405v-.014q0-.556-.102-1.093-.118-.624-.374-1.221-.195-.456-.459-.869-.381-.597-.904-1.104-.362-.351-.77-.636-.594-.415-1.285-.692-.539-.216-1.099-.333-.655-.136-1.338-.136-.705 0-1.339.184-.604.175-1.221.539-.592.35-1.283.927-.588.491-1.427 1.303c-.262.258-.597.387-.933.387s-.672-.129-.933-.387zm.93-2.777q-.359-.32-.682-.583-.872-.71-1.686-1.175-1.339-.765-2.763-.99-.594-.094-1.202-.094-.94 0-1.843.184-.808.165-1.586.476-.934.374-1.744.929-.623.426-1.173.959-.716.693-1.248 1.507-.412.63-.712 1.333-.363.849-.536 1.735Q0 10.588 0 11.418q0 .339.028.675.178 2.139 1.489 4.183.6.935 1.47 1.903.672.747 1.615 1.63l9.699 9.388.006.007a1.326 1.326 0 0 0 1.918 0l.006-.007 9.699-9.388q.944-.883 1.615-1.63.87-.967 1.47-1.903 1.311-2.044 1.489-4.183.028-.337.028-.675 0-.829-.155-1.629-.172-.886-.535-1.735-.301-.703-.712-1.333-.531-.814-1.247-1.507-.55-.532-1.173-.959-.811-.555-1.744-.929-.778-.312-1.586-.476-.903-.184-1.843-.184-1.083 0-2.081.289-.928.269-1.835.804-.779.46-1.636 1.176-.302.252-.655.572z"/></symbol><symbol id="solar_clipboard-list-linear" viewBox="0 0 32 32"><path d="M11 2.172q-.243.163-.454.374T10.172 3t-.277.519-.171.563q-.026.132-.041.267-.581.012-1.008.035-.959.051-1.641.176-.799.147-1.402.427-.5.232-.908.574-.135.113-.261.239-.105.105-.202.217-.43.499-.694 1.14-.284.691-.414 1.656-.106.789-.137 2.004-.019.738-.019 2.518v8q0 1.781.019 2.519.031 1.215.137 2.004.13.964.414 1.656.262.637.687 1.133.1.116.208.225.103.103.213.198.5.432 1.145.697.691.284 1.656.414.789.106 2.004.137.738.019 2.518.019h8q1.78 0 2.518-.019 1.215-.031 2.004-.137.964-.129 1.656-.414.644-.265 1.145-.697.11-.095.213-.197.105-.105.202-.217.429-.499.693-1.14.284-.691.414-1.656.106-.789.137-2.004.019-.738.019-2.519v-8q0-1.78-.019-2.518-.031-1.215-.137-2.004-.13-.964-.414-1.656-.264-.641-.694-1.14-.097-.112-.202-.217-.125-.125-.261-.238-.408-.342-.908-.574-.603-.28-1.402-.427-.682-.125-1.641-.176-.427-.023-1.008-.035-.014-.135-.04-.267-.057-.287-.171-.563t-.277-.519-.374-.454-.454-.374-.519-.277-.563-.171-.585-.057h-6.667q-.298 0-.585.057t-.563.171-.519.277zm11.313 4.176q-.014.119-.037.237-.057.287-.171.563t-.277.519-.374.454-.454.374-.519.277-.563.171-.585.057h-6.667q-.298 0-.585-.057t-.563-.171-.519-.277-.454-.374-.374-.454-.277-.519-.171-.563q-.023-.118-.037-.237-.523.011-.905.032-.83.044-1.385.146-.549.101-.921.274-.338.157-.588.403l-.009.009q-.289.289-.46.705-.186.453-.282 1.161-.092.681-.119 1.788-.018.713-.018 2.468v8q0 1.755.018 2.468.028 1.106.119 1.788.095.708.282 1.161.171.416.46.705t.704.459q.453.186 1.161.281.681.092 1.788.119.713.018 2.468.018h8q1.755 0 2.468-.018 1.107-.028 1.788-.119.709-.095 1.161-.281.415-.171.704-.459t.46-.705q.186-.453.282-1.161.092-.682.119-1.788.018-.713.018-2.468v-8q0-1.755-.018-2.468-.028-1.106-.119-1.788-.095-.708-.282-1.161-.171-.416-.46-.705l-.009-.009q-.25-.247-.588-.404-.372-.173-.921-.274-.555-.102-1.385-.146-.382-.02-.905-.032zM11.74 4.283q.073-.177.22-.323t.323-.22.384-.073h6.667q.207 0 .384.073t.323.22.22.323.073.384V6q0 .207-.073.384t-.22.323-.323.22-.384.073h-6.667q-.207 0-.384-.073t-.323-.22-.22-.323T11.667 6V4.667q0-.207.073-.384zM11 14c0-.56-.44-1-1-1h-.667c-.56 0-1 .44-1 1s.44 1 1 1H10c.56 0 1-.44 1-1zm11.667-1H14c-.56 0-1 .44-1 1s.44 1 1 1h8.667c.56 0 1-.44 1-1s-.44-1-1-1zM11 18.667c0-.56-.44-1-1-1h-.667c-.56 0-1 .44-1 1s.44 1 1 1H10c.56 0 1-.44 1-1zm11.667-1H14c-.56 0-1 .44-1 1s.44 1 1 1h8.667c.56 0 1-.44 1-1s-.44-1-1-1zM11 23.333c0-.56-.44-1-1-1h-.667c-.56 0-1 .44-1 1s.44 1 1 1H10c.56 0 1-.44 1-1zm11.667-1H14c-.56 0-1 .44-1 1s.44 1 1 1h8.667c.56 0 1-.44 1-1s-.44-1-1-1z"/></symbol></defs></svg>