<svg aria-hidden="true" style="position: absolute; width: 0; height: 0; overflow: hidden;" version="1.1" xmlns="http://www.w3.org/2000/svg" xmlns:xlink="http://www.w3.org/1999/xlink">
<defs>
<symbol id="facebook" viewBox="0 0 32 32">
<path d="M24.012 2.401c0-0.442-0.358-0.8-0.8-0.8v0h-4.002c-0.113-0.006-0.246-0.009-0.38-0.009-4.068 0-7.394 3.182-7.623 7.193l-0.001 0.020v4.322h-4.002c-0.442 0-0.8 0.358-0.8 0.8v0 4.162c0 0.442 0.358 0.8 0.8 0.8v0h4.002v10.725c0 0.442 0.358 0.8 0.8 0.8h4.802c0.442 0 0.8-0.358 0.8-0.8v0-10.725h4.194c0.003 0 0.007 0 0.012 0 0.368 0 0.678-0.248 0.772-0.587l0.001-0.006 1.153-4.162c0.017-0.062 0.028-0.134 0.028-0.208 0-0.44-0.356-0.798-0.796-0.8h-5.363v-4.322c0.084-0.813 0.765-1.441 1.593-1.441 0.003 0 0.006 0 0.008 0h4.002c0.442 0 0.8-0.358 0.8-0.8v0-4.162z"></path>
</symbol>
<symbol id="icon-battery" viewBox="0 0 32 32">
<path d="M9.338 26.013c0 0.547 0.209 1.063 0.566 1.434 0.355 0.369 0.824 0.567 1.302 0.567h9.605c0.478 0 0.947-0.197 1.302-0.567 0.356-0.371 0.566-0.886 0.566-1.434v-18.342c0-0.547-0.209-1.063-0.566-1.434-0.327-0.347-0.789-0.564-1.301-0.567h-0.801c-0.584 0-1.133-0.243-1.529-0.654-0.262-0.274-0.453-0.617-0.544-0.999l-0.003-0.015h-3.851c-0.094 0.397-0.286 0.74-0.549 1.015l0.001-0.001c-0.396 0.411-0.944 0.654-1.529 0.654h-0.8c-0.478 0-0.947 0.197-1.302 0.567-0.35 0.37-0.566 0.872-0.566 1.423 0 0.004 0 0.008 0 0.012v-0.001 18.342zM7.98 29.294c-0.811-0.849-1.31-2.002-1.31-3.272 0-0.003 0-0.007 0-0.010v0.001-18.342c0-1.221 0.466-2.402 1.31-3.282 0.813-0.853 1.957-1.384 3.225-1.387h0.325c0.088-0.376 0.275-0.727 0.548-1.014 0.396-0.411 0.944-0.654 1.529-0.654h4.802c0.584 0 1.133 0.243 1.529 0.654 0.273 0.287 0.46 0.638 0.547 1.014h0.326c1.221 0 2.38 0.507 3.226 1.387 0.844 0.879 1.31 2.061 1.31 3.282v18.342c0 1.221-0.466 2.402-1.31 3.282-0.813 0.853-1.957 1.384-3.225 1.387h-9.605c-1.221 0-2.38-0.507-3.226-1.387zM11.472 24.345c0-0.737 0.597-1.334 1.334-1.334v0h6.403c0.737 0 1.334 0.597 1.334 1.334s-0.597 1.334-1.334 1.334v0h-6.403c-0.737 0-1.334-0.597-1.334-1.334v0zM11.472 19.343c0-0.737 0.597-1.334 1.334-1.334v0h6.403c0.737 0 1.334 0.597 1.334 1.334s-0.597 1.334-1.334 1.334v0h-6.403c-0.737 0-1.334-0.597-1.334-1.334v0zM11.472 14.34c0-0.737 0.597-1.334 1.334-1.334v0h6.403c0.737 0 1.334 0.597 1.334 1.334s-0.597 1.334-1.334 1.334v0h-6.403c-0.737 0-1.334-0.597-1.334-1.334v0z"></path>
<path opacity="0.2" d="M9.338 26.013c0 0.547 0.209 1.063 0.566 1.434 0.355 0.369 0.824 0.567 1.302 0.567h9.605c0.478 0 0.947-0.197 1.302-0.567 0.356-0.371 0.566-0.886 0.566-1.434v-18.342c0-0.547-0.209-1.063-0.566-1.434-0.327-0.347-0.789-0.564-1.301-0.567h-0.801c-0.584 0-1.133-0.243-1.529-0.654-0.262-0.274-0.453-0.617-0.544-0.999l-0.003-0.015h-3.851c-0.094 0.397-0.286 0.74-0.549 1.015l0.001-0.001c-0.396 0.411-0.944 0.654-1.529 0.654h-0.8c-0.478 0-0.947 0.197-1.302 0.567-0.35 0.37-0.566 0.872-0.566 1.423 0 0.004 0 0.008 0 0.012v-0.001 18.342zM7.98 29.294c-0.811-0.849-1.31-2.002-1.31-3.272 0-0.003 0-0.007 0-0.010v0.001-18.342c0-1.221 0.466-2.402 1.31-3.282 0.813-0.853 1.957-1.384 3.225-1.387h0.325c0.088-0.376 0.275-0.727 0.548-1.014 0.396-0.411 0.944-0.654 1.529-0.654h4.802c0.584 0 1.133 0.243 1.529 0.654 0.273 0.287 0.46 0.638 0.547 1.014h0.326c1.221 0 2.38 0.507 3.226 1.387 0.844 0.879 1.31 2.061 1.31 3.282v18.342c0 1.221-0.466 2.402-1.31 3.282-0.813 0.853-1.957 1.384-3.225 1.387h-9.605c-1.221 0-2.38-0.507-3.226-1.387zM11.472 24.345c0-0.737 0.597-1.334 1.334-1.334v0h6.403c0.737 0 1.334 0.597 1.334 1.334s-0.597 1.334-1.334 1.334v0h-6.403c-0.737 0-1.334-0.597-1.334-1.334v0zM11.472 19.343c0-0.737 0.597-1.334 1.334-1.334v0h6.403c0.737 0 1.334 0.597 1.334 1.334s-0.597 1.334-1.334 1.334v0h-6.403c-0.737 0-1.334-0.597-1.334-1.334v0zM11.472 14.34c0-0.737 0.597-1.334 1.334-1.334v0h6.403c0.737 0 1.334 0.597 1.334 1.334s-0.597 1.334-1.334 1.334v0h-6.403c-0.737 0-1.334-0.597-1.334-1.334v0z"></path>
</symbol>
<symbol id="icon-camera" viewBox="0 0 32 32">
<path d="M10.896 3.262c0.243-0.36 0.649-0.594 1.11-0.594 0 0 0 0 0 0h8.004c0 0 0 0 0 0 0.461 0 0.867 0.234 1.107 0.589l0.003 0.005 2.272 3.408h4.622c2.21 0 4.002 1.792 4.002 4.002v0 14.674c0 2.21-1.792 4.002-4.002 4.002v0h-24.012c-2.21 0-4.002-1.792-4.002-4.002v0-14.674c0-2.21 1.792-4.002 4.002-4.002v0h4.622l2.272-3.408zM12.72 5.336l-2.272 3.408c-0.243 0.36-0.649 0.594-1.11 0.594-0 0-0 0-0 0h-5.336c-0.737 0-1.334 0.597-1.334 1.334v0 14.674c0 0.737 0.597 1.334 1.334 1.334v0h24.012c0.737 0 1.334-0.597 1.334-1.334v0-14.674c0-0.737-0.597-1.334-1.334-1.334v0h-5.336c-0 0-0 0-0 0-0.461 0-0.867-0.234-1.107-0.589l-0.003-0.005-2.272-3.408h-6.577zM16.008 13.34c-2.21 0-4.002 1.792-4.002 4.002s1.792 4.002 4.002 4.002v0c2.21 0 4.002-1.792 4.002-4.002s-1.792-4.002-4.002-4.002v0zM9.338 17.342c0-3.684 2.986-6.67 6.67-6.67s6.67 2.986 6.67 6.67v0c0 3.684-2.986 6.67-6.67 6.67s-6.67-2.986-6.67-6.67v0z"></path>
</symbol>
<symbol id="icon-cart-white" viewBox="0 0 32 32">
<path d="M0 2.668c0-0.737 0.597-1.334 1.334-1.334v0h5.336c0.644 0 1.181 0.457 1.306 1.064l0.001 0.009 1.121 5.597h21.584c0.737 0 1.334 0.597 1.334 1.334 0 0.088-0.009 0.174-0.025 0.258l0.001-0.008-2.136 11.203c-0.377 1.85-1.991 3.222-3.925 3.222-0.023 0-0.045-0-0.068-0.001l0.003 0h-12.94c-0.019 0-0.041 0-0.064 0-1.934 0-3.547-1.372-3.921-3.195l-0.004-0.026-2.228-11.135c-0.008-0.028-0.015-0.066-0.022-0.104l-0.001-0.008-1.111-5.543h-4.242c-0.737 0-1.334-0.597-1.334-1.334v0zM9.631 10.672l1.921 9.598c0.126 0.617 0.664 1.074 1.308 1.074 0.009 0 0.018-0 0.027-0l-0.001 0h13.020c0.007 0 0.015 0 0.024 0 0.643 0 1.18-0.455 1.306-1.061l0.002-0.009 1.833-9.602h-19.438zM9.338 29.348c0-1.473 1.194-2.668 2.668-2.668s2.668 1.195 2.668 2.668v0c0 1.473-1.194 2.668-2.668 2.668s-2.668-1.195-2.668-2.668v0zM24.012 29.348c0-1.473 1.195-2.668 2.668-2.668s2.668 1.195 2.668 2.668v0c0 1.473-1.195 2.668-2.668 2.668s-2.668-1.195-2.668-2.668v0z"></path>
</symbol>
<symbol id="icon-catalogue-black" viewBox="0 0 32 32">
<path d="M8.004 6.336c-0.921 0-1.668 0.747-1.668 1.667v0 3.001c0 0.921 0.747 1.668 1.668 1.668v0h3.001c0.921 0 1.668-0.747 1.668-1.668v0-3.001c0-0.921-0.747-1.668-1.668-1.668v0h-3.001zM4.938 4.938c0.785-0.785 1.868-1.27 3.065-1.27h3.002c2.394 0 4.335 1.941 4.335 4.335v0 3.001c0 2.394-1.941 4.335-4.335 4.335v0h-3.001c-2.394 0-4.335-1.941-4.335-4.335v0-3.001c0-1.15 0.456-2.253 1.27-3.066zM21.010 6.336c-0.921 0-1.668 0.747-1.668 1.667v0 3.001c0 0.921 0.747 1.668 1.668 1.668v0h3.001c0.921 0 1.668-0.747 1.668-1.668v0-3.001c0-0.921-0.747-1.668-1.668-1.668v0h-3.001zM17.945 4.938c0.785-0.785 1.868-1.27 3.066-1.27h3.002c2.394 0 4.335 1.941 4.335 4.335v0 3.001c0 2.394-1.941 4.335-4.335 4.335v0h-3.001c-2.394 0-4.335-1.941-4.335-4.335v0-3.001c0-1.15 0.456-2.253 1.27-3.066zM8.004 19.343c-0.921 0-1.668 0.747-1.668 1.668v0 3.001c0 0.921 0.747 1.668 1.668 1.668v0h3.001c0.921 0 1.668-0.747 1.668-1.668v0-3.001c0-0.921-0.747-1.668-1.668-1.668v0h-3.001zM4.938 17.945c0.785-0.785 1.868-1.27 3.065-1.27h3.002c2.394 0 4.335 1.941 4.335 4.335v0 3.001c0 2.394-1.941 4.335-4.335 4.335v0h-3.001c-2.394 0-4.335-1.941-4.335-4.335v0-3.001c0-1.15 0.456-2.253 1.27-3.066zM21.010 19.343c-0.921 0-1.668 0.747-1.668 1.668v0 3.001c0 0.921 0.747 1.668 1.668 1.668v0h3.001c0.921 0 1.668-0.747 1.668-1.668v0-3.001c0-0.921-0.747-1.668-1.668-1.668v0h-3.001zM17.945 17.945c0.785-0.785 1.868-1.27 3.066-1.27h3.002c2.394 0 4.335 1.941 4.335 4.335v0 3.001c0 2.394-1.941 4.335-4.335 4.335v0h-3.001c-2.394 0-4.335-1.941-4.335-4.335v0-3.001c0-1.15 0.456-2.253 1.27-3.066z"></path>
</symbol>
<symbol id="icon-chevron-right" viewBox="0 0 32 32">
<path d="M11.063 7.061c0.241-0.241 0.575-0.391 0.943-0.391s0.702 0.149 0.943 0.391l8.004 8.004c0.241 0.241 0.391 0.575 0.391 0.943s-0.149 0.702-0.391 0.943l-8.004 8.004c-0.24 0.232-0.567 0.374-0.927 0.374-0.737 0-1.334-0.597-1.334-1.334 0-0.36 0.143-0.687 0.375-0.927l7.060-7.060-7.061-7.061c-0.241-0.241-0.391-0.575-0.391-0.943s0.149-0.702 0.391-0.943v0z"></path>
<path opacity="0.2" d="M11.063 7.061c0.241-0.241 0.575-0.391 0.943-0.391s0.702 0.149 0.943 0.391l8.004 8.004c0.241 0.241 0.391 0.575 0.391 0.943s-0.149 0.702-0.391 0.943l-8.004 8.004c-0.24 0.232-0.567 0.374-0.927 0.374-0.737 0-1.334-0.597-1.334-1.334 0-0.36 0.143-0.687 0.375-0.927l7.060-7.060-7.061-7.061c-0.241-0.241-0.391-0.575-0.391-0.943s0.149-0.702 0.391-0.943v0z"></path>
</symbol>
<symbol id="icon-coins" viewBox="0 0 32 32">
<path d="M7.634 3.256c2.717-0.784 6.026-0.784 8.743 0 1.365 0.394 2.556 0.978 3.434 1.738 0.876 0.76 1.533 1.786 1.533 3.009s-0.656 2.25-1.534 3.009c-0.876 0.76-2.068 1.345-3.431 1.738-2.719 0.784-6.027 0.784-8.744 0-0.877-0.249-1.64-0.571-2.351-0.973l0.053 0.028v2.868c0 0.137 0.035 0.287 0.291 0.523 0.297 0.276 0.8 0.575 1.587 0.927 0.469 0.214 0.789 0.678 0.789 1.218 0 0.737-0.597 1.334-1.334 1.334-0.197 0-0.385-0.043-0.553-0.12l0.008 0.003c-0.267-0.12-0.531-0.245-0.788-0.379v3.163c0 0.137 0.035 0.287 0.291 0.523 0.297 0.276 0.8 0.575 1.587 0.927 0.469 0.214 0.789 0.678 0.789 1.218 0 0.737-0.597 1.334-1.334 1.334-0.197 0-0.385-0.043-0.553-0.12l0.008 0.003c-0.851-0.382-1.681-0.823-2.308-1.403-0.668-0.618-1.149-1.435-1.149-2.483v-13.34c0-1.223 0.656-2.25 1.534-3.009 0.876-0.76 2.068-1.345 3.432-1.738zM5.336 8.004c0 0.207 0.107 0.555 0.612 0.992 0.504 0.436 1.314 0.87 2.425 1.191 2.234 0.646 5.029 0.646 7.265 0 1.111-0.32 1.921-0.755 2.425-1.191 0.506-0.438 0.612-0.787 0.612-0.992 0-0.207-0.107-0.555-0.612-0.992-0.504-0.436-1.314-0.87-2.427-1.191-2.233-0.646-5.029-0.646-7.264 0-1.111 0.32-1.921 0.755-2.425 1.191-0.506 0.438-0.612 0.787-0.612 0.992zM13.753 14.653c1.67-0.835 3.883-1.313 6.256-1.313s4.586 0.478 6.256 1.313c1.59 0.795 3.081 2.142 3.081 4.023v5.336c0 1.881-1.491 3.228-3.081 4.022-1.67 0.836-3.883 1.314-6.256 1.314s-4.586-0.478-6.256-1.314c-1.59-0.794-3.082-2.14-3.082-4.022v-5.336c0-1.882 1.491-3.228 3.082-4.023zM13.34 22.478v1.534c0 0.327 0.3 0.983 1.606 1.637 1.227 0.614 3.015 1.031 5.064 1.031 2.048 0 3.837-0.419 5.064-1.031 1.305-0.654 1.606-1.31 1.606-1.637v-1.534c-0.091 0.055-0.227 0.128-0.364 0.199l-0.049 0.023c-1.67 0.835-3.883 1.313-6.256 1.313s-4.586-0.478-6.256-1.313c-0.187-0.093-0.322-0.167-0.455-0.244l0.042 0.022zM26.68 18.676c0 0.328-0.3 0.983-1.606 1.637-1.227 0.614-3.015 1.031-5.064 1.031-2.048 0-3.837-0.418-5.064-1.031-1.305-0.654-1.606-1.309-1.606-1.637s0.3-0.983 1.606-1.637c1.227-0.614 3.015-1.031 5.064-1.031 2.048 0 3.837 0.418 5.064 1.031 1.306 0.654 1.606 1.309 1.606 1.637z"></path>
</symbol>
<symbol id="icon-compare" viewBox="0 0 32 32">
<path d="M16.008-0.053c0.737 0 1.334 0.597 1.334 1.334v0 4.221l7.642 2.448 2.985 1.035c0.531 0.184 0.906 0.68 0.906 1.264 0 0.737-0.597 1.334-1.334 1.334-0.159 0-0.312-0.028-0.454-0.079l0.009 0.003-0.314-0.108 2.21 5.944h0.354c0 0 0 0 0.001 0 0.737 0 1.334 0.597 1.334 1.334 0 0.596-0.39 1.1-0.929 1.271l-0.009 0.003c-0.273 0.758-0.65 1.414-1.122 1.989l0.009-0.012c-0.868 1.051-2.212 1.925-4.085 1.925-1.872 0-3.215-0.874-4.085-1.925-0.463-0.563-0.84-1.219-1.099-1.931l-0.015-0.046c-0.548-0.174-0.938-0.678-0.938-1.274 0-0.736 0.597-1.334 1.333-1.334h0.354l2.715-7.288-5.469-1.752v20.157h4.669c0.737 0 1.334 0.597 1.334 1.334s-0.597 1.334-1.334 1.334v0h-12.006c-0.737 0-1.334-0.597-1.334-1.334s0.597-1.334 1.334-1.334v0h4.669v-21.013l-4.829-1.547 1.982 5.573h0.339c0.737 0 1.334 0.597 1.334 1.334 0 0.559-0.344 1.038-0.831 1.236l-0.009 0.003c-0.239 0.766-0.599 1.43-1.063 2.007l0.009-0.012c-0.83 1.038-2.145 1.941-3.922 1.941-1.958 0-3.376-0.835-4.311-1.89-0.501-0.568-0.907-1.235-1.183-1.965l-0.015-0.044c-0.553-0.171-0.947-0.678-0.947-1.277 0-0.737 0.597-1.334 1.334-1.334h0.4l2.921-6.846-2.453-0.796c-0.564-0.164-0.97-0.676-0.97-1.283 0-0.737 0.597-1.334 1.334-1.334 0.165 0 0.322 0.030 0.468 0.084l-0.009-0.003 3.842 1.245 6.579 2.108v-3.366c0-0.737 0.597-1.334 1.334-1.334v0zM7.57 7.47l1.425 4.002h-3.134l1.709-4.002zM5.219 14.14h4.476c-0.052 0.079-0.109 0.156-0.171 0.233-0.45 0.563-1.054 0.94-1.84 0.94-1.115 0-1.832-0.446-2.316-0.991-0.048-0.054-0.097-0.114-0.144-0.175l-0.006-0.008zM24.545 13.036l-1.602 4.306h3.204l-1.601-4.306zM26.74 20.010h-4.387c0.053 0.073 0.107 0.147 0.165 0.217 0.454 0.55 1.086 0.956 2.029 0.956 0.944 0 1.574-0.407 2.028-0.956 0.059-0.071 0.113-0.143 0.165-0.217z"></path>
</symbol>
<symbol id="icon-cores-in-cpu" viewBox="0 0 33 32">
<path d="M11.111 1.341c0.736 0 1.333 0.597 1.333 1.333v0 0.889h2.889v-0.889c0-0.736 0.597-1.333 1.333-1.333s1.333 0.597 1.333 1.333v0 0.889h2.889v-0.889c0-0.736 0.597-1.333 1.333-1.333s1.333 0.597 1.333 1.333v0 0.889h0.888c2.577 0 4.667 2.089 4.667 4.667v0 0.888h0.889c0.736 0 1.333 0.597 1.333 1.333s-0.597 1.333-1.333 1.333v0h-0.889v2.889h0.889c0.736 0 1.333 0.597 1.333 1.333s-0.597 1.333-1.333 1.333v0h-0.889v2.889h0.889c0.736 0 1.333 0.597 1.333 1.333s-0.597 1.333-1.333 1.333v0h-0.889v0.888c0 2.577-2.089 4.667-4.667 4.667v0h-0.888v0.889c0 0.736-0.597 1.333-1.333 1.333s-1.333-0.597-1.333-1.333v0-0.889h-2.889v0.889c0 0.736-0.597 1.333-1.333 1.333s-1.333-0.597-1.333-1.333v0-0.889h-2.889v0.889c0 0.736-0.597 1.333-1.333 1.333s-1.333-0.597-1.333-1.333v0-0.889h-0.888c-2.577 0-4.667-2.089-4.667-4.667v0-0.888h-0.889c-0.736 0-1.333-0.597-1.333-1.333s0.597-1.333 1.333-1.333v0h0.889v-2.889h-0.889c-0.736 0-1.333-0.597-1.333-1.333s0.597-1.333 1.333-1.333v0h0.889v-2.889h-0.889c-0.736 0-1.333-0.597-1.333-1.333s0.597-1.333 1.333-1.333v0h0.889v-0.888c0-2.577 2.089-4.667 4.667-4.667v0h0.888v-0.889c0-0.736 0.597-1.333 1.333-1.333v0zM8.889 6.231c-1.105 0-2 0.895-2 2v0 15.555c0 1.105 0.895 2 2 2v0h15.555c1.105 0 2-0.895 2-2v0-15.555c0-1.105-0.895-2-2-2v0h-15.555zM8.667 9.341c0-0.736 0.597-1.333 1.333-1.333v0h4.667c0.736 0 1.333 0.597 1.333 1.333v0 4.667c0 0.736-0.597 1.333-1.333 1.333v0h-4.667c-0.736 0-1.333-0.597-1.333-1.333v0-4.667zM11.333 10.675v2h2v-2h-2zM17.333 9.341c0-0.736 0.597-1.333 1.333-1.333v0h4.667c0.736 0 1.333 0.597 1.333 1.333v0 4.667c0 0.736-0.597 1.333-1.333 1.333v0h-4.667c-0.736 0-1.333-0.597-1.333-1.333v0-4.667zM20 10.675v2h2v-2h-2zM8.667 18.008c0-0.736 0.597-1.333 1.333-1.333v0h4.667c0.736 0 1.333 0.597 1.333 1.333v0 4.667c0 0.736-0.597 1.333-1.333 1.333v0h-4.667c-0.736 0-1.333-0.597-1.333-1.333v0-4.667zM11.333 19.341v2h2v-2h-2zM17.333 18.008c0-0.736 0.597-1.333 1.333-1.333v0h4.667c0.736 0 1.333 0.597 1.333 1.333v0 4.667c0 0.736-0.597 1.333-1.333 1.333v0h-4.667c-0.736 0-1.333-0.597-1.333-1.333v0-4.667zM20 19.341v2h2v-2h-2z"></path>
<path opacity="0.2" d="M11.111 1.341c0.736 0 1.333 0.597 1.333 1.333v0 0.889h2.889v-0.889c0-0.736 0.597-1.333 1.333-1.333s1.333 0.597 1.333 1.333v0 0.889h2.889v-0.889c0-0.736 0.597-1.333 1.333-1.333s1.333 0.597 1.333 1.333v0 0.889h0.888c2.577 0 4.667 2.089 4.667 4.667v0 0.888h0.889c0.736 0 1.333 0.597 1.333 1.333s-0.597 1.333-1.333 1.333v0h-0.889v2.889h0.889c0.736 0 1.333 0.597 1.333 1.333s-0.597 1.333-1.333 1.333v0h-0.889v2.889h0.889c0.736 0 1.333 0.597 1.333 1.333s-0.597 1.333-1.333 1.333v0h-0.889v0.888c0 2.577-2.089 4.667-4.667 4.667v0h-0.888v0.889c0 0.736-0.597 1.333-1.333 1.333s-1.333-0.597-1.333-1.333v0-0.889h-2.889v0.889c0 0.736-0.597 1.333-1.333 1.333s-1.333-0.597-1.333-1.333v0-0.889h-2.889v0.889c0 0.736-0.597 1.333-1.333 1.333s-1.333-0.597-1.333-1.333v0-0.889h-0.888c-2.577 0-4.667-2.089-4.667-4.667v0-0.888h-0.889c-0.736 0-1.333-0.597-1.333-1.333s0.597-1.333 1.333-1.333v0h0.889v-2.889h-0.889c-0.736 0-1.333-0.597-1.333-1.333s0.597-1.333 1.333-1.333v0h0.889v-2.889h-0.889c-0.736 0-1.333-0.597-1.333-1.333s0.597-1.333 1.333-1.333v0h0.889v-0.888c0-2.577 2.089-4.667 4.667-4.667v0h0.888v-0.889c0-0.736 0.597-1.333 1.333-1.333v0zM8.889 6.231c-1.105 0-2 0.895-2 2v0 15.555c0 1.105 0.895 2 2 2v0h15.555c1.105 0 2-0.895 2-2v0-15.555c0-1.105-0.895-2-2-2v0h-15.555zM8.667 9.341c0-0.736 0.597-1.333 1.333-1.333v0h4.667c0.736 0 1.333 0.597 1.333 1.333v0 4.667c0 0.736-0.597 1.333-1.333 1.333v0h-4.667c-0.736 0-1.333-0.597-1.333-1.333v0-4.667zM11.333 10.675v2h2v-2h-2zM17.333 9.341c0-0.736 0.597-1.333 1.333-1.333v0h4.667c0.736 0 1.333 0.597 1.333 1.333v0 4.667c0 0.736-0.597 1.333-1.333 1.333v0h-4.667c-0.736 0-1.333-0.597-1.333-1.333v0-4.667zM20 10.675v2h2v-2h-2zM8.667 18.008c0-0.736 0.597-1.333 1.333-1.333v0h4.667c0.736 0 1.333 0.597 1.333 1.333v0 4.667c0 0.736-0.597 1.333-1.333 1.333v0h-4.667c-0.736 0-1.333-0.597-1.333-1.333v0-4.667zM11.333 19.341v2h2v-2h-2zM17.333 18.008c0-0.736 0.597-1.333 1.333-1.333v0h4.667c0.736 0 1.333 0.597 1.333 1.333v0 4.667c0 0.736-0.597 1.333-1.333 1.333v0h-4.667c-0.736 0-1.333-0.597-1.333-1.333v0-4.667zM20 19.341v2h2v-2h-2z"></path>
</symbol>
<symbol id="icon-cpu" viewBox="0 0 32 32">
<path d="M10.449 1.334c0.737 0 1.334 0.597 1.334 1.334v0 0.89h2.891v-0.89c0-0.737 0.597-1.334 1.334-1.334s1.334 0.597 1.334 1.334v0 0.89h2.891v-0.89c0-0.737 0.597-1.334 1.334-1.334s1.334 0.597 1.334 1.334v0 0.89h0.888c2.579 0 4.669 2.090 4.669 4.669v0 0.888h0.89c0.737 0 1.334 0.597 1.334 1.334s-0.597 1.334-1.334 1.334v0h-0.89v2.891h0.89c0.737 0 1.334 0.597 1.334 1.334s-0.597 1.334-1.334 1.334v0h-0.89v2.891h0.89c0.737 0 1.334 0.597 1.334 1.334s-0.597 1.334-1.334 1.334v0h-0.89v0.888c0 2.579-2.090 4.669-4.669 4.669v0h-0.888v0.89c0 0.737-0.597 1.334-1.334 1.334s-1.334-0.597-1.334-1.334v0-0.89h-2.891v0.89c0 0.737-0.597 1.334-1.334 1.334s-1.334-0.597-1.334-1.334v0-0.89h-2.891v0.89c0 0.737-0.597 1.334-1.334 1.334s-1.334-0.597-1.334-1.334v0-0.89h-0.888c-2.579 0-4.669-2.090-4.669-4.669v0-0.888h-0.89c-0.737 0-1.334-0.597-1.334-1.334s0.597-1.334 1.334-1.334v0h0.89v-2.891h-0.89c-0.737 0-1.334-0.597-1.334-1.334s0.597-1.334 1.334-1.334v0h0.89v-2.891h-0.89c-0.737 0-1.334-0.597-1.334-1.334s0.597-1.334 1.334-1.334v0h0.89v-0.888c0-2.579 2.090-4.669 4.669-4.669v0h0.888v-0.89c0-0.737 0.597-1.334 1.334-1.334v0zM8.227 6.226c-1.105 0-2.001 0.896-2.001 2.001v0 15.562c0 1.105 0.896 2.001 2.001 2.001v0h15.562c1.105 0 2.001-0.896 2.001-2.001v0-15.562c0-1.105-0.896-2.001-2.001-2.001v0h-15.562zM8.004 9.338c0-0.737 0.597-1.334 1.334-1.334v0h13.34c0.737 0 1.334 0.597 1.334 1.334v0 13.34c0 0.737-0.597 1.334-1.334 1.334v0h-13.34c-0.737 0-1.334-0.597-1.334-1.334v0-13.34zM10.672 10.672v10.672h10.672v-10.672h-10.672z"></path>
<path opacity="0.2" d="M10.449 1.334c0.737 0 1.334 0.597 1.334 1.334v0 0.89h2.891v-0.89c0-0.737 0.597-1.334 1.334-1.334s1.334 0.597 1.334 1.334v0 0.89h2.891v-0.89c0-0.737 0.597-1.334 1.334-1.334s1.334 0.597 1.334 1.334v0 0.89h0.888c2.579 0 4.669 2.090 4.669 4.669v0 0.888h0.89c0.737 0 1.334 0.597 1.334 1.334s-0.597 1.334-1.334 1.334v0h-0.89v2.891h0.89c0.737 0 1.334 0.597 1.334 1.334s-0.597 1.334-1.334 1.334v0h-0.89v2.891h0.89c0.737 0 1.334 0.597 1.334 1.334s-0.597 1.334-1.334 1.334v0h-0.89v0.888c0 2.579-2.090 4.669-4.669 4.669v0h-0.888v0.89c0 0.737-0.597 1.334-1.334 1.334s-1.334-0.597-1.334-1.334v0-0.89h-2.891v0.89c0 0.737-0.597 1.334-1.334 1.334s-1.334-0.597-1.334-1.334v0-0.89h-2.891v0.89c0 0.737-0.597 1.334-1.334 1.334s-1.334-0.597-1.334-1.334v0-0.89h-0.888c-2.579 0-4.669-2.090-4.669-4.669v0-0.888h-0.89c-0.737 0-1.334-0.597-1.334-1.334s0.597-1.334 1.334-1.334v0h0.89v-2.891h-0.89c-0.737 0-1.334-0.597-1.334-1.334s0.597-1.334 1.334-1.334v0h0.89v-2.891h-0.89c-0.737 0-1.334-0.597-1.334-1.334s0.597-1.334 1.334-1.334v0h0.89v-0.888c0-2.579 2.090-4.669 4.669-4.669v0h0.888v-0.89c0-0.737 0.597-1.334 1.334-1.334v0zM8.227 6.226c-1.105 0-2.001 0.896-2.001 2.001v0 15.562c0 1.105 0.896 2.001 2.001 2.001v0h15.562c1.105 0 2.001-0.896 2.001-2.001v0-15.562c0-1.105-0.896-2.001-2.001-2.001v0h-15.562zM8.004 9.338c0-0.737 0.597-1.334 1.334-1.334v0h13.34c0.737 0 1.334 0.597 1.334 1.334v0 13.34c0 0.737-0.597 1.334-1.334 1.334v0h-13.34c-0.737 0-1.334-0.597-1.334-1.334v0-13.34zM10.672 10.672v10.672h10.672v-10.672h-10.672z"></path>
</symbol>
<symbol id="icon-diagonal" viewBox="0 0 32 32">
<path d="M10.29 4.002c-0.005-0-0.011-0-0.017-0-0.271 0-0.519 0.098-0.71 0.262l0.002-0.001c-0.134 0.11-0.22 0.273-0.227 0.456l-0 0.001v22.576c0 0.14 0.061 0.309 0.227 0.458 0.19 0.162 0.437 0.26 0.708 0.26 0.006 0 0.012-0 0.018-0h11.434c0.005 0 0.011 0 0.017 0 0.271 0 0.519-0.098 0.71-0.262l-0.002 0.001c0.133-0.11 0.22-0.273 0.227-0.456l0-0.001v-22.576c-0.007-0.184-0.093-0.348-0.226-0.457l-0.001-0.001c-0.19-0.162-0.437-0.26-0.708-0.26-0.006 0-0.012 0-0.018 0h-11.434zM7.782 2.276c0.66-0.585 1.532-0.942 2.489-0.942 0.007 0 0.013 0 0.020 0h11.434c0.916 0 1.82 0.326 2.508 0.942 0.692 0.622 1.113 1.497 1.113 2.444v22.576c0 0.947-0.42 1.822-1.113 2.444-0.66 0.585-1.532 0.942-2.489 0.942-0.007 0-0.013-0-0.020-0h-11.434c-0.006 0-0.012 0-0.019 0-0.956 0-1.829-0.357-2.493-0.945l0.004 0.003c-0.679-0.6-1.106-1.472-1.113-2.443v-22.578c0-0.947 0.42-1.822 1.113-2.444zM13.531 25.243c0-0.737 0.597-1.334 1.334-1.334v0h2.286c0.737 0 1.334 0.597 1.334 1.334s-0.597 1.334-1.334 1.334v0h-2.286c-0.737 0-1.334-0.597-1.334-1.334v0z"></path>
<path opacity="0.2" d="M10.29 4.002c-0.005-0-0.011-0-0.017-0-0.271 0-0.519 0.098-0.71 0.262l0.002-0.001c-0.134 0.11-0.22 0.273-0.227 0.456l-0 0.001v22.576c0 0.14 0.061 0.309 0.227 0.458 0.19 0.162 0.437 0.26 0.708 0.26 0.006 0 0.012-0 0.018-0h11.434c0.005 0 0.011 0 0.017 0 0.271 0 0.519-0.098 0.71-0.262l-0.002 0.001c0.133-0.11 0.22-0.273 0.227-0.456l0-0.001v-22.576c-0.007-0.184-0.093-0.348-0.226-0.457l-0.001-0.001c-0.19-0.162-0.437-0.26-0.708-0.26-0.006 0-0.012 0-0.018 0h-11.434zM7.782 2.276c0.66-0.585 1.532-0.942 2.489-0.942 0.007 0 0.013 0 0.020 0h11.434c0.916 0 1.82 0.326 2.508 0.942 0.692 0.622 1.113 1.497 1.113 2.444v22.576c0 0.947-0.42 1.822-1.113 2.444-0.66 0.585-1.532 0.942-2.489 0.942-0.007 0-0.013-0-0.020-0h-11.434c-0.006 0-0.012 0-0.019 0-0.956 0-1.829-0.357-2.493-0.945l0.004 0.003c-0.679-0.6-1.106-1.472-1.113-2.443v-22.578c0-0.947 0.42-1.822 1.113-2.444zM13.531 25.243c0-0.737 0.597-1.334 1.334-1.334v0h2.286c0.737 0 1.334 0.597 1.334 1.334s-0.597 1.334-1.334 1.334v0h-2.286c-0.737 0-1.334-0.597-1.334-1.334v0z"></path>
<path d="M17.119 9.894c-0.553 0-1-0.448-1-1.001s0.448-1 1-1v0h3.335c0.553 0 1 0.448 1 1v0 3.335c0 0.553-0.448 1.001-1 1.001s-1-0.448-1-1.001v0-0.92l-1.627 1.627c-0.178 0.166-0.418 0.269-0.682 0.269-0.553 0-1-0.448-1-1.001 0-0.264 0.102-0.504 0.269-0.683l-0.001 0.001 1.627-1.627h-0.92zM11.562 13.451c0.553 0 1.001 0.448 1.001 1.001v0 0.92l1.627-1.627c0.183-0.196 0.443-0.318 0.732-0.318 0.553 0 1.001 0.448 1.001 1.001 0 0.289-0.122 0.549-0.318 0.731l-0.001 0.001-1.627 1.627h0.92c0.553 0 1.001 0.448 1.001 1s-0.448 1-1.001 1v0h-3.335c-0.553 0-1.001-0.448-1.001-1v0-3.335c0-0.553 0.448-1.001 1.001-1.001v0z"></path>
<path opacity="0.2" d="M17.119 9.894c-0.553 0-1-0.448-1-1.001s0.448-1 1-1v0h3.335c0.553 0 1 0.448 1 1v0 3.335c0 0.553-0.448 1.001-1 1.001s-1-0.448-1-1.001v0-0.92l-1.627 1.627c-0.178 0.166-0.418 0.269-0.682 0.269-0.553 0-1-0.448-1-1.001 0-0.264 0.102-0.504 0.269-0.683l-0.001 0.001 1.627-1.627h-0.92zM11.562 13.451c0.553 0 1.001 0.448 1.001 1.001v0 0.92l1.627-1.627c0.183-0.196 0.443-0.318 0.732-0.318 0.553 0 1.001 0.448 1.001 1.001 0 0.289-0.122 0.549-0.318 0.731l-0.001 0.001-1.627 1.627h0.92c0.553 0 1.001 0.448 1.001 1s-0.448 1-1.001 1v0h-3.335c-0.553 0-1.001-0.448-1.001-1v0-3.335c0-0.553 0.448-1.001 1.001-1.001v0z"></path>
</symbol>
<symbol id="icon-front-camera" viewBox="0 0 32 32">
<path d="M11.306 3.159c0.246-0.301 0.618-0.491 1.034-0.491 0 0 0 0 0 0h7.337c0 0 0 0 0 0 0.416 0 0.787 0.19 1.032 0.489l0.002 0.002 3.268 4.011h3.769c1.142 0 2.23 0.464 3.028 1.281 0.798 0.815 1.241 1.914 1.241 3.055v13.507c0 1.141-0.443 2.24-1.241 3.055-0.769 0.789-1.841 1.279-3.028 1.281h-23.479c-1.187-0.002-2.259-0.492-3.027-1.28l-0.001-0.001c-0.767-0.787-1.241-1.863-1.241-3.050 0-0.002 0-0.003 0-0.005v0-13.507c0-1.141 0.443-2.24 1.241-3.055 0.769-0.789 1.841-1.279 3.028-1.281h3.769l3.268-4.011zM12.973 5.336l-3.268 4.011c-0.246 0.301-0.618 0.491-1.034 0.491 0 0-0 0-0 0h-4.402c-0.414 0-0.819 0.168-1.121 0.478-0.304 0.311-0.48 0.738-0.48 1.19v13.507c0 0.452 0.176 0.88 0.48 1.19 0.301 0.309 0.707 0.478 1.121 0.478h23.478c0.414 0 0.819-0.168 1.121-0.478 0.304-0.311 0.48-0.738 0.48-1.19v-13.507c0-0.452-0.176-0.88-0.48-1.19-0.284-0.293-0.681-0.476-1.12-0.478h-4.402c0 0-0 0-0 0-0.416 0-0.787-0.19-1.032-0.489l-0.002-0.002-3.268-4.011h-6.070z"></path>
<path opacity="0.2" d="M11.306 3.159c0.246-0.301 0.618-0.491 1.034-0.491 0 0 0 0 0 0h7.337c0 0 0 0 0 0 0.416 0 0.787 0.19 1.032 0.489l0.002 0.002 3.268 4.011h3.769c1.142 0 2.23 0.464 3.028 1.281 0.798 0.815 1.241 1.914 1.241 3.055v13.507c0 1.141-0.443 2.24-1.241 3.055-0.769 0.789-1.841 1.279-3.028 1.281h-23.479c-1.187-0.002-2.259-0.492-3.027-1.28l-0.001-0.001c-0.767-0.787-1.241-1.863-1.241-3.050 0-0.002 0-0.003 0-0.005v0-13.507c0-1.141 0.443-2.24 1.241-3.055 0.769-0.789 1.841-1.279 3.028-1.281h3.769l3.268-4.011zM12.973 5.336l-3.268 4.011c-0.246 0.301-0.618 0.491-1.034 0.491 0 0-0 0-0 0h-4.402c-0.414 0-0.819 0.168-1.121 0.478-0.304 0.311-0.48 0.738-0.48 1.19v13.507c0 0.452 0.176 0.88 0.48 1.19 0.301 0.309 0.707 0.478 1.121 0.478h23.478c0.414 0 0.819-0.168 1.121-0.478 0.304-0.311 0.48-0.738 0.48-1.19v-13.507c0-0.452-0.176-0.88-0.48-1.19-0.284-0.293-0.681-0.476-1.12-0.478h-4.402c0 0-0 0-0 0-0.416 0-0.787-0.19-1.032-0.489l-0.002-0.002-3.268-4.011h-6.070z"></path>
<path d="M21.344 22.678h-10.672v-0.734c0-1 0.49-1.794 1.467-2.384s2.268-0.884 3.869-0.884 2.891 0.293 3.869 0.883c0.978 0.59 1.467 1.385 1.467 2.385v0.734z"></path>
<path opacity="0.2" d="M21.344 22.678h-10.672v-0.734c0-1 0.49-1.794 1.467-2.384s2.268-0.884 3.869-0.884 2.891 0.293 3.869 0.883c0.978 0.59 1.467 1.385 1.467 2.385v0.734z"></path>
<path d="M17.893 16.557c-0.468 0.484-1.123 0.785-1.849 0.785-0.013 0-0.025-0-0.038-0l0.002 0c-0.734 0-1.361-0.26-1.884-0.783-0.484-0.468-0.785-1.123-0.785-1.849 0-0.013 0-0.025 0-0.038l-0 0.002c0-0.734 0.26-1.361 0.783-1.884 0.468-0.484 1.123-0.785 1.849-0.785 0.013 0 0.025 0 0.038 0l-0.002-0c0.734 0 1.361 0.26 1.884 0.783s0.784 1.151 0.784 1.885-0.26 1.361-0.783 1.884z"></path>
<path opacity="0.2" d="M17.893 16.557c-0.468 0.484-1.123 0.785-1.849 0.785-0.013 0-0.025-0-0.038-0l0.002 0c-0.734 0-1.361-0.26-1.884-0.783-0.484-0.468-0.785-1.123-0.785-1.849 0-0.013 0-0.025 0-0.038l-0 0.002c0-0.734 0.26-1.361 0.783-1.884 0.468-0.484 1.123-0.785 1.849-0.785 0.013 0 0.025 0 0.038 0l-0.002-0c0.734 0 1.361 0.26 1.884 0.783s0.784 1.151 0.784 1.885-0.26 1.361-0.783 1.884z"></path>
</symbol>
<symbol id="icon-heart" viewBox="0 0 32 32">
<path d="M19.292 3.326c0.982-0.419 2.124-0.662 3.324-0.662 4.789 0 8.671 3.882 8.671 8.671 0 1.199-0.243 2.342-0.684 3.38l0.021-0.057c-0.46 1.095-1.096 2.030-1.881 2.815l-0 0s0-0.001 0 0l-11.792 11.792c-0.241 0.241-0.575 0.391-0.943 0.391s-0.702-0.149-0.943-0.391l-11.792-11.792c-1.57-1.57-2.541-3.738-2.541-6.133 0-4.79 3.883-8.673 8.673-8.673 2.395 0 4.563 0.971 6.132 2.54l0.471 0.471 0.471-0.471c0.785-0.785 1.719-1.42 2.756-1.86l0.057-0.021zM22.611 5.333c0 0-0 0-0 0-1.658 0-3.16 0.672-4.246 1.76l-1.414 1.414c-0.241 0.241-0.575 0.391-0.943 0.391s-0.702-0.149-0.943-0.391l-1.414-1.414c-1.087-1.087-2.588-1.759-4.246-1.759-3.316 0-6.005 2.688-6.005 6.005 0 1.658 0.672 3.159 1.759 4.246v0l10.849 10.849 10.849-10.849c1.088-1.087 1.76-2.588 1.76-4.247 0-3.316-2.688-6.004-6.004-6.004-0.001 0-0.002 0-0.002 0h0z"></path>
</symbol>
<symbol id="icon-help-circle" viewBox="0 0 32 32">
<path d="M16.352 10.704c-0.135-0.024-0.291-0.038-0.45-0.038-1.156 0-2.141 0.736-2.511 1.764l-0.006 0.019c-0.188 0.524-0.68 0.891-1.259 0.891-0.737 0-1.334-0.597-1.334-1.334 0-0.159 0.028-0.311 0.079-0.452l-0.003 0.009c0.753-2.094 2.721-3.564 5.033-3.564 2.947 0 5.336 2.389 5.336 5.336 0 0.002 0 0.004 0 0.007v-0c0 2.041-1.514 3.388-2.595 4.11-0.647 0.434-1.389 0.815-2.175 1.107l-0.074 0.024-0.047 0.017-0.015 0.005h-0.005l-0.001 0.001s-0.003 0-0.424-1.265l0.422 1.266c-0.121 0.040-0.261 0.063-0.405 0.063-0.737 0-1.334-0.597-1.334-1.334 0-0.579 0.369-1.073 0.886-1.257l0.009-0.003 0.021-0.008 0.099-0.036c0.599-0.231 1.114-0.5 1.593-0.819l-0.030 0.018c0.92-0.614 1.407-1.267 1.407-1.893v-0.001c0-0.002 0-0.003 0-0.005 0-1.314-0.95-2.406-2.201-2.627l-0.016-0.002zM16.008 21.344c-0.737 0-1.334 0.597-1.334 1.334s0.597 1.334 1.334 1.334v0h0.013c0.737 0 1.334-0.597 1.334-1.334s-0.597-1.334-1.334-1.334v0h-0.013z"></path>
<path d="M1.334 16.008c0-8.104 6.57-14.674 14.674-14.674s14.674 6.57 14.674 14.674-6.57 14.674-14.674 14.674-14.674-6.57-14.674-14.674zM16.008 4.002c-6.631 0-12.006 5.375-12.006 12.006s5.375 12.006 12.006 12.006v0c6.631 0 12.006-5.375 12.006-12.006s-5.375-12.006-12.006-12.006v0z"></path>
</symbol>
<symbol id="icon-home-crumbs" viewBox="0 0 32 32">
<path d="M16.618 1.878l12.005 9.336c0.234 0.183 0.384 0.468 0.384 0.788 0 0 0 0.001 0 0.001v14.669c0 0.001 0 0.001 0 0.002 0 2.025-1.642 3.667-3.667 3.667h-18.672c-2.025 0-3.667-1.642-3.667-3.667 0-0.001 0-0.001 0-0.002v-14.669c0-0 0-0.001 0-0.001 0-0.32 0.15-0.605 0.386-0.789l12.001-9.332c0.17-0.133 0.384-0.212 0.616-0.212s0.446 0.079 0.614 0.211zM21.005 28.34h4.335c0.92 0 1.666-0.746 1.666-1.666 0-0.001 0-0.001 0-0.002v0-14.179l-11.002-8.558-11.002 8.558v14.179c0 0.001 0 0.001 0 0.002 0 0.92 0.746 1.666 1.666 1.666h4.335v-12.337c0-0.552 0.448-1 1-1v0h8.002c0.552 0 1 0.448 1 1v0 12.337zM13.003 28.34h6.001v-11.337h-6.001v11.337z"></path>
<path opacity="0.2" d="M16.618 1.878l12.005 9.336c0.234 0.183 0.384 0.468 0.384 0.788 0 0 0 0.001 0 0.001v14.669c0 0.001 0 0.001 0 0.002 0 2.025-1.642 3.667-3.667 3.667h-18.672c-2.025 0-3.667-1.642-3.667-3.667 0-0.001 0-0.001 0-0.002v-14.669c0-0 0-0.001 0-0.001 0-0.32 0.15-0.605 0.386-0.789l12.001-9.332c0.17-0.133 0.384-0.212 0.616-0.212s0.446 0.079 0.614 0.211zM21.005 28.34h4.335c0.92 0 1.666-0.746 1.666-1.666 0-0.001 0-0.001 0-0.002v0-14.179l-11.002-8.558-11.002 8.558v14.179c0 0.001 0 0.001 0 0.002 0 0.92 0.746 1.666 1.666 1.666h4.335v-12.337c0-0.552 0.448-1 1-1v0h8.002c0.552 0 1 0.448 1 1v0 12.337zM13.003 28.34h6.001v-11.337h-6.001v11.337z"></path>
</symbol>
<symbol id="icon-mail" viewBox="0 0 33 32">
<path d="M4.809 7.413c0.22-0.436 0.673-0.739 1.191-0.739h21.333c0.517 0 0.971 0.303 1.191 0.739l-11.857 8.3-11.857-8.3zM2 7.988v16.020c0 2.203 1.797 4 4 4h21.333c2.203 0 4-1.797 4-4v-16.027c-0.020-2.196-1.802-3.969-4-3.973h-21.334c-2.2 0.004-3.984 1.781-4 3.979v0.002zM28.667 10.569v13.439c0 0.731-0.603 1.333-1.333 1.333h-21.333c-0.731 0-1.333-0.603-1.333-1.333v-13.44l11.236 7.867c0.213 0.151 0.478 0.241 0.764 0.241s0.551-0.090 0.768-0.243l-0.004 0.003 11.236-7.867z"></path>
</symbol>
<symbol id="icon-search" viewBox="0 0 32 32">
<path d="M5.336 14.674v0c0 0 0 0 0 0 0 5.157 4.181 9.338 9.338 9.338 2.517 0 4.801-0.996 6.478-2.612l0.002-0.003c0.070-0.091 0.152-0.172 0.246-0.245l-0.003 0.003c1.619-1.679 2.615-3.964 2.615-6.48 0-5.157-4.181-9.338-9.338-9.338s-9.338 4.181-9.338 9.338zM22.168 24.054c-2.034 1.636-4.648 2.626-7.494 2.626-6.631 0-12.006-5.375-12.006-12.006s5.375-12.006 12.006-12.006c6.631 0 12.006 5.375 12.006 12.006 0 2.845-0.99 5.46-2.644 7.517l0.018-0.023 4.902 4.902c0.232 0.24 0.374 0.567 0.374 0.927 0 0.737-0.597 1.334-1.334 1.334-0.36 0-0.687-0.143-0.927-0.375l-4.902-4.902z"></path>
<path opacity="0.2" d="M5.336 14.674v0c0 0 0 0 0 0 0 5.157 4.181 9.338 9.338 9.338 2.517 0 4.801-0.996 6.478-2.612l0.002-0.003c0.070-0.091 0.152-0.172 0.246-0.245l-0.003 0.003c1.619-1.679 2.615-3.964 2.615-6.48 0-5.157-4.181-9.338-9.338-9.338s-9.338 4.181-9.338 9.338zM22.168 24.054c-2.034 1.636-4.648 2.626-7.494 2.626-6.631 0-12.006-5.375-12.006-12.006s5.375-12.006 12.006-12.006c6.631 0 12.006 5.375 12.006 12.006 0 2.845-0.99 5.46-2.644 7.517l0.018-0.023 4.902 4.902c0.232 0.24 0.374 0.567 0.374 0.927 0 0.737-0.597 1.334-1.334 1.334-0.36 0-0.687-0.143-0.927-0.375l-4.902-4.902z"></path>
</symbol>
<symbol id="icon-twitter" viewBox="0 0 32 32">
<path d="M6.128 6.649c0.046-0.006 0.1-0.009 0.154-0.009 0.455 0 0.858 0.228 1.098 0.577l0.003 0.004c1.969 2.88 4.333 4.078 6.957 4.349 0.128-1.121 0.431-2.229 1.001-3.206 0.835-1.433 2.193-2.487 4.133-2.876 2.681-0.539 4.722 0.432 5.906 1.621l2.39-0.447c0.074-0.014 0.159-0.023 0.246-0.023 0.737 0 1.334 0.597 1.334 1.334 0 0.243-0.065 0.471-0.178 0.667l0.003-0.006-2.294 4.031c0.209 5.816-1.407 9.878-4.854 12.676-1.828 1.483-4.445 2.325-7.317 2.585-2.895 0.261-6.167-0.055-9.419-1.005-0.56-0.167-0.96-0.677-0.96-1.281 0-0.607 0.405-1.119 0.96-1.281l0.009-0.002c1.635-0.467 2.881-0.867 4.006-1.57-1.599-0.848-2.777-1.958-3.611-3.223-1.158-1.758-1.587-3.719-1.673-5.487s0.169-3.406 0.439-4.586c0.153-0.674 0.332-1.349 0.579-1.994 0.179-0.458 0.59-0.788 1.085-0.848l0.006-0.001h-0.001z"></path>
</symbol>
<symbol id="icon-user" viewBox="0 0 33 32">
<path d="M13.12 9.341c0-2.209 1.791-4 4-4s4 1.791 4 4v0c0 2.209-1.791 4-4 4s-4-1.791-4-4v0zM17.12 2.675c-3.682 0-6.667 2.985-6.667 6.667s2.985 6.667 6.667 6.667v0c3.682 0 6.667-2.985 6.667-6.667s-2.985-6.667-6.667-6.667v0zM11.787 18.675c-3.682 0-6.667 2.985-6.667 6.667v0 2.667c0 0.736 0.597 1.333 1.333 1.333s1.333-0.597 1.333-1.333v0-2.667c0-2.209 1.791-4 4-4v0h10.667c2.209 0 4 1.791 4 4v0 2.667c0 0.736 0.597 1.333 1.333 1.333s1.333-0.597 1.333-1.333v0-2.667c0-3.682-2.985-6.667-6.667-6.667v0h-10.667z"></path>
</symbol>
<symbol id="instagram" viewBox="0 0 32 32">
<path d="M16.008 11.84c-2.3 0.005-4.163 1.868-4.167 4.167v0c0.005 2.3 1.868 4.163 4.167 4.167h0c2.3-0.005 4.163-1.868 4.167-4.167v-0c-0.005-2.3-1.868-4.163-4.167-4.167h-0zM28.507 16.008c0-1.726 0.016-3.436-0.080-5.159-0.097-2.001-0.554-3.777-2.017-5.24-1.467-1.467-3.239-1.921-5.24-2.017-1.726-0.097-3.436-0.081-5.16-0.081-1.725 0-3.435-0.016-5.159 0.081-2.001 0.097-3.777 0.554-5.24 2.017-1.467 1.466-1.92 3.239-2.017 5.24-0.096 1.726-0.080 3.436-0.080 5.159s-0.016 3.436 0.080 5.159c0.097 2.001 0.554 3.777 2.017 5.24 1.467 1.467 3.239 1.921 5.24 2.017 1.726 0.097 3.436 0.081 5.159 0.081 1.726 0 3.436 0.016 5.159-0.081 2.001-0.097 3.778-0.554 5.241-2.017 1.466-1.466 1.92-3.239 2.016-5.24 0.1-1.722 0.081-3.432 0.081-5.159zM16.008 22.42c-0.003 0-0.006 0-0.009 0-3.536 0-6.403-2.867-6.403-6.403 0-0.003 0-0.007 0-0.010v0c0-0.003 0-0.006 0-0.009 0-3.536 2.867-6.403 6.403-6.403 0.003 0 0.007 0 0.010 0h-0c0.003 0 0.006 0 0.009 0 3.536 0 6.403 2.867 6.403 6.403 0 0.003 0 0.007 0 0.010v-0c0 0.003 0 0.006 0 0.009 0 3.536-2.867 6.403-6.403 6.403-0.003 0-0.007 0-0.010 0h0zM22.683 10.831c-0.001 0-0.002 0-0.003 0-0.826 0-1.495-0.669-1.495-1.495 0-0.001 0-0.002 0-0.003v0c0-0.828 0.67-1.498 1.498-1.498 0.004-0 0.008-0 0.012-0 0.826 0 1.495 0.669 1.495 1.495 0 0.624-0.382 1.158-0.924 1.382l-0.010 0.004c-0.169 0.072-0.367 0.115-0.574 0.115h-0z"></path>
</symbol>
<symbol id="pointer-in-tooltip-frame" viewBox="0 0 32 32">
<path d="M3.233 12.769l9.699-9.699c1.785-1.785 4.684-1.789 6.474-0.008l9.722 9.675c1.79 1.781 1.793 4.672 0.008 6.458l-9.699 9.699c-1.785 1.785-4.684 1.789-6.474 0.008l-9.722-9.675c-1.79-1.781-1.793-4.672-0.008-6.458z"></path>
<path opacity="0.2" d="M3.233 12.769l9.699-9.699c1.785-1.785 4.684-1.789 6.474-0.008l9.722 9.675c1.79 1.781 1.793 4.672 0.008 6.458l-9.699 9.699c-1.785 1.785-4.684 1.789-6.474 0.008l-9.722-9.675c-1.79-1.781-1.793-4.672-0.008-6.458z"></path>
</symbol>
</defs>
</svg>
